<svg width="52" height="53" viewBox="0 0 52 53" fill="none" xmlns="http://www.w3.org/2000/svg">
<path d="M10.6182 13.4969C10.168 13.1656 12.6304 11.4047 14.404 10.2156C15.4214 9.53486 19.2522 7.2475 23.002 5.15076C22.8399 5.33229 22.6644 5.5456 22.4753 5.7816C19.2837 8.50464 15.3178 12.1717 13.4362 13.987C11.7481 14.273 10.9108 13.7057 10.6182 13.4969Z" fill="#2A46F3"/>
<path d="M9.94364 19.3375C10.3128 19.5008 11.4697 19.9547 13.4459 18.8836C14.9314 16.5282 18.1905 11.5722 20.7114 8.09583C17.3577 11.0866 13.833 14.3906 12.9462 15.3164C11.4652 16.8595 9.43496 19.1151 9.94364 19.3375Z" fill="#2A46F3"/>
<path d="M32.1407 7.17481C31.4609 4.51076 34.8686 0.548731 32.2577 0.0449676C29.9619 -0.408873 25.9915 2.65455 23.4661 5.53644C20.9407 8.41833 14.355 18.4618 13.2881 20.318C12.2212 22.1743 10.7942 24.8565 11.3389 24.9518C11.8836 25.0471 14.0398 25.3148 16.7723 21.0623C20.6977 14.8946 23.3131 12.3758 25.1542 11.6225C26.9954 10.8691 28.886 11.3592 30.7092 12.7434C32.4423 14.0641 33.9638 16.0792 35.6609 16.828C37.9522 17.8038 40.3425 16.1291 39.4917 15.7433C37.702 14.9708 36.1102 13.7978 34.8366 12.3133C33.563 10.8288 32.6411 9.07162 32.1407 7.17481Z" fill="#608CFF"/>
<path d="M50.3633 22.8234C50.872 22.5965 51.1556 25.6282 51.2906 27.7703C51.3671 29.0002 51.4121 33.4887 51.3401 37.8138C51.2636 37.5778 51.1691 37.3191 51.061 37.0377C50.3138 32.8851 49.1524 27.5933 48.5356 25.0427C49.1299 23.4225 50.0437 22.9687 50.3633 22.8234Z" fill="#2A46F3"/>
<path d="M45.6811 19.3378C45.3569 19.5783 44.3891 20.3635 44.2991 22.61C45.573 25.0653 48.2064 30.3888 49.935 34.3146C49.0662 29.9032 47.9859 25.1787 47.6347 23.9398C47.0495 21.8839 46.1267 18.9838 45.6811 19.3378Z" fill="#2A46F3"/>
<path d="M45.033 44.7756C47.662 45.5154 49.359 50.4713 51.0967 48.4472C52.6317 46.6636 51.997 41.6713 50.777 38.0088C49.5571 34.3463 44.2228 23.6084 43.1649 21.7477C42.107 19.8869 40.5135 17.2955 40.1623 17.7267C39.8112 18.1578 38.4878 19.9233 40.7881 24.4163C44.1237 30.9289 44.979 34.4689 44.7179 36.4658C44.4703 38.39 43.0794 39.856 40.9816 40.75C38.9829 41.6078 36.4801 41.9255 35.0035 43.0555C33.0183 44.5714 33.2614 47.4986 34.0177 46.945C35.5715 45.767 37.3701 44.9597 39.2781 44.5839C41.1861 44.2082 43.1538 44.2737 45.033 44.7756Z" fill="#608CFF"/>
<path d="M22.4759 52.8629C22.4219 53.4212 19.6714 52.1549 17.7673 51.1973C16.6689 50.6527 12.8155 48.4471 9.11523 46.2051C9.35382 46.255 9.62391 46.3004 9.92102 46.3503C13.8599 47.7708 18.9872 49.4001 21.49 50.1399C22.5749 51.4878 22.5119 52.5089 22.4759 52.8629Z" fill="#2A46F3"/>
<path d="M27.8328 50.5303C27.7878 50.1264 27.5987 48.8919 25.7125 47.6893C22.9441 47.5713 17.056 47.1991 12.811 46.7407C17.038 48.1839 21.6386 49.609 22.8765 49.9176C24.9428 50.4395 27.8958 51.1067 27.8328 50.5303Z" fill="#2A46F3"/>
<path d="M6.28369 37.2329C4.33902 39.1571 -0.770267 38.1405 0.098536 40.6957C0.863803 42.924 5.50042 44.8574 9.21422 45.6244C12.928 46.3914 24.8707 47.1175 26.9999 47.1175C29.1292 47.1175 32.1497 47.0267 31.9516 46.5048C31.7536 45.9829 30.9028 43.9452 25.8925 43.7092C18.6315 43.3643 15.1608 42.3476 13.5762 41.1177C11.9917 39.8878 11.4875 37.9862 11.7756 35.708C12.0412 33.5341 13.0135 31.1968 12.784 29.3542C12.4734 26.8671 9.83993 25.6145 9.93447 26.5494C10.167 28.4926 9.95933 30.4636 9.32696 32.3142C8.6946 34.1647 7.65406 35.8465 6.28369 37.2329Z" fill="#608CFF"/>
<path d="M34.8461 23.631C35.5618 21.3618 35.1972 18.8657 33.0454 16.3332C30.6191 13.4967 28.5979 11.8674 25.9239 12.521C23.8217 13.0383 20.7561 16.9913 19.3156 26.3586C16.8533 26.8124 14.7691 28.3328 13.6122 31.6186C12.3697 35.1495 11.9601 37.7273 13.8507 39.7469C15.3633 41.3626 20.441 42.0887 29.5342 38.4988C31.1683 40.4867 33.5856 41.5623 37.0383 40.8724C40.6846 40.1417 43.0884 39.1796 43.8447 36.511C44.4344 34.3825 42.4762 29.6399 34.8461 23.631Z" fill="white"/>
<g style="mix-blend-mode:multiply">
<path d="M13.8376 39.7607C15.3996 41.4308 20.779 42.1524 30.4664 38.1268C35.1255 36.1935 36.1608 32.8033 31.3262 29.8352C25.3931 26.2044 16.5295 23.3044 13.599 31.6505C12.3565 35.1496 11.9469 37.7275 13.8376 39.7607Z" fill="#FDDC53"/>
</g>
<g style="mix-blend-mode:multiply">
<path d="M25.9104 12.5304C23.7001 13.075 20.414 17.4228 19.086 27.9066C18.4468 32.9533 20.8551 35.5175 25.8069 32.7581C31.893 29.3679 38.7579 23.0278 33.0094 16.3336C30.6055 13.4971 28.5843 11.8678 25.9104 12.5304Z" fill="#FDDC53"/>
</g>
<g style="mix-blend-mode:multiply">
<path d="M43.8314 36.5113C44.4571 34.3011 42.3279 29.2498 33.928 22.9323C29.8766 19.8825 26.4824 20.7221 26.4149 26.4269C26.3383 33.4342 28.4136 42.5837 37.0116 40.8727C40.6713 40.142 43.0752 39.1798 43.8314 36.5113Z" fill="#FDDC53"/>
</g>
</svg>
