<svg width="173" height="90" viewBox="0 0 173 90" fill="none" xmlns="http://www.w3.org/2000/svg">
<path d="M18.1305 23.0416C17.3619 22.4853 21.5663 19.5283 24.5947 17.5315C26.3318 16.3884 32.8729 12.5473 39.2756 9.02637C38.9989 9.33121 38.6991 9.6894 38.3763 10.0857C32.9267 14.6584 26.155 20.8162 22.9421 23.8647C20.0598 24.3448 18.6301 23.3922 18.1305 23.0416Z" fill="#1836ED"/>
<path d="M16.9784 32.8492C17.6087 33.1235 19.5841 33.8857 22.9584 32.0871C25.4949 28.1317 31.0597 19.8095 35.3641 13.9717C29.6378 18.994 23.6194 24.5422 22.1052 26.0969C19.5764 28.6881 16.1099 32.4757 16.9784 32.8492Z" fill="#2A46F3"/>
<path d="M54.8792 12.4252C53.7186 7.95164 59.5371 1.29841 55.0791 0.452465C51.159 -0.309647 44.3797 4.83461 40.0677 9.67401C35.7557 14.5134 24.5106 31.3789 22.6889 34.496C20.8673 37.613 18.4307 42.1171 19.3607 42.2771C20.2908 42.4372 23.9725 42.8868 28.6381 35.7458C35.3406 25.3887 39.8064 21.159 42.9501 19.8939C46.0938 18.6288 49.322 19.4519 52.435 21.7763C55.3942 23.9941 57.9922 27.3779 60.8899 28.6353C64.8023 30.2739 68.8837 27.4617 67.431 26.8139C64.3752 25.5166 61.6571 23.5469 59.4824 21.054C57.3078 18.5612 55.7337 15.6105 54.8792 12.4252V12.4252Z" fill="#608CFF"/>
<path d="M85.9939 38.7033C86.8625 38.3223 87.3467 43.4132 87.5773 47.0103C87.708 49.0756 87.7848 56.6129 87.6619 63.8759C87.5312 63.4796 87.3698 63.0452 87.1853 62.5726C85.9094 55.5993 83.9263 46.7131 82.8733 42.43C83.8879 39.7093 85.4482 38.9472 85.9939 38.7033Z" fill="#1836ED"/>
<path d="M77.9993 32.85C77.4459 33.2539 75.7934 34.5723 75.6396 38.3448C77.8149 42.4678 82.3114 51.4074 85.2629 57.9996C83.7795 50.5919 81.9347 42.6583 81.3352 40.5778C80.336 37.1254 78.7603 32.2555 77.9993 32.85Z" fill="#2A46F3"/>
<path d="M76.8928 75.5662C81.3816 76.8084 84.2793 85.1307 87.2463 81.7317C89.8673 78.7366 88.7835 70.3534 86.7005 64.2031C84.6175 58.0529 75.5092 40.0213 73.703 36.8967C71.8967 33.772 69.1757 29.4204 68.5762 30.1444C67.9766 30.8684 65.7169 33.833 69.6446 41.3779C75.3401 52.3142 76.8005 58.2586 76.3547 61.6119C75.932 64.8433 73.5569 67.3049 69.9751 68.8063C66.5624 70.2467 62.2888 70.7801 59.7677 72.6778C56.378 75.2232 56.793 80.1389 58.0844 79.2091C60.7374 77.231 63.8084 75.8753 67.0663 75.2443C70.3242 74.6133 73.684 74.7234 76.8928 75.5662V75.5662Z" fill="#608CFF"/>
<path d="M38.377 89.147C38.2847 90.0844 33.5884 87.9581 30.3371 86.35C28.4616 85.4355 21.8821 81.7316 15.564 77.9668C15.9713 78.0506 16.4325 78.1268 16.9398 78.2107C23.6653 80.5961 32.4201 83.3321 36.6937 84.5743C38.5461 86.8378 38.4385 88.5525 38.377 89.147Z" fill="#1836ED"/>
<path d="M47.5238 85.2298C47.4469 84.5516 47.1241 82.4786 43.9035 80.459C39.1764 80.2609 29.1227 79.6359 21.8745 78.8662C29.092 81.2897 36.9474 83.6828 39.0611 84.201C42.5891 85.0774 47.6314 86.1977 47.5238 85.2298Z" fill="#2A46F3"/>
<path d="M10.7293 62.8996C7.40876 66.131 -1.31521 64.4238 0.168248 68.7145C1.47492 72.4565 9.39183 75.7031 15.733 76.9911C22.0743 78.279 42.4661 79.4984 46.1017 79.4984C49.7373 79.4984 54.8948 79.346 54.5566 78.4695C54.2184 77.5931 52.7657 74.1712 44.2109 73.7749C31.8128 73.1957 25.8867 71.4886 23.1811 69.4233C20.4755 67.358 19.6146 64.1647 20.1066 60.3389C20.5601 56.6884 22.2203 52.7635 21.8283 49.6694C21.2979 45.493 16.8014 43.3896 16.9629 44.9595C17.36 48.2226 17.0053 51.5324 15.9256 54.6399C14.8458 57.7474 13.0691 60.5715 10.7293 62.8996Z" fill="#608CFF"/>
<path d="M59.499 40.0593C60.7211 36.2488 60.0986 32.0572 56.4245 27.8046C52.2816 23.0414 48.8304 20.3054 44.2647 21.4028C40.6752 22.2716 35.4408 28.9096 32.9812 44.6396C28.7768 45.4017 25.218 47.9548 23.2427 53.4725C21.1212 59.4017 20.4218 63.7305 23.65 67.1219C26.2326 69.835 34.9028 71.0544 50.4292 65.0261C53.2193 68.3641 57.3469 70.1703 63.2423 69.0119C69.4682 67.7849 73.5727 66.1693 74.864 61.688C75.8709 58.1137 72.5273 50.1497 59.499 40.0593Z" fill="white"/>
<g style="mix-blend-mode:multiply">
<path d="M23.6271 67.1448C26.2942 69.9494 35.4794 71.1611 52.0203 64.4012C59.9757 61.1546 61.7435 55.4616 53.4884 50.4774C43.3579 44.3805 28.2235 39.5106 23.2197 53.5259C21.0983 59.4017 20.3988 63.7305 23.6271 67.1448Z" fill="#FFE05F"/>
</g>
<g style="mix-blend-mode:multiply">
<path d="M44.2412 21.4185C40.4672 22.333 34.8562 29.634 32.5887 47.2388C31.4973 55.7135 35.6094 60.0194 44.0644 55.3858C54.4563 49.6928 66.1779 39.0461 56.3625 27.805C52.258 23.0418 48.8069 20.3058 44.2412 21.4185Z" fill="#FFE05F"/>
</g>
<g style="mix-blend-mode:multiply">
<path d="M74.8409 61.6884C75.9093 57.977 72.2737 49.4947 57.931 38.8861C51.0133 33.7647 45.2179 35.1746 45.1026 44.7543C44.9719 56.5213 48.5153 71.8855 63.1962 69.0123C69.4451 67.7853 73.5496 66.1697 74.8409 61.6884Z" fill="#FFE05F"/>
</g>
<path d="M104.802 25.5498V9.81641H108.456C111.096 9.81641 112.45 11.3695 112.45 14.4081C112.45 15.3535 112.315 16.0962 112.044 16.7715C111.773 17.4467 111.232 17.9194 110.555 18.3246L112.991 25.4822H110.622L108.524 18.7972H107.17V25.4822H104.802V25.5498ZM107.035 11.9097V16.839H108.321C108.727 16.839 109.066 16.7715 109.269 16.704C109.472 16.5689 109.675 16.4339 109.81 16.2313C109.946 16.0287 110.013 15.7586 110.081 15.4885C110.149 15.2184 110.149 14.8133 110.149 14.4081C110.149 14.003 110.149 13.6653 110.081 13.3277C110.013 13.0576 109.946 12.7875 109.81 12.5174C109.539 12.1123 108.998 11.9097 108.186 11.9097H107.035Z" fill="#303030"/>
<path d="M114.21 25.5498V9.81641H120.91V11.9097H116.443V16.5014H120.369V18.6622H116.443V23.2539H120.91V25.4822H114.21V25.5498Z" fill="#303030"/>
<path d="M122.399 25.5498V9.81641H125.716C126.46 9.81641 127.07 9.95146 127.543 10.154C128.017 10.3566 128.491 10.6942 128.762 11.0319C129.1 11.3695 129.303 11.8422 129.439 12.3148C129.574 12.7875 129.642 13.2602 129.642 13.8004V14.3406C129.642 14.7457 129.642 15.1509 129.574 15.421C129.506 15.6911 129.439 15.9612 129.303 16.1638C129.033 16.5689 128.694 16.9065 128.153 17.2442C128.694 17.5143 129.1 17.8519 129.303 18.3246C129.574 18.7972 129.709 19.4725 129.709 20.2828V21.1606C129.709 22.5111 129.371 23.5915 128.694 24.3343C128.017 25.0771 126.934 25.4147 125.445 25.4147H122.399V25.5498ZM124.701 11.9097V16.2313H125.716C126.46 16.2313 127.002 16.0287 127.205 15.6911C127.476 15.2859 127.611 14.7457 127.611 14.0705C127.611 13.3952 127.476 12.855 127.205 12.4499C126.934 12.1123 126.393 11.9097 125.648 11.9097H124.701ZM124.701 18.257V23.3214H125.648C126.122 23.3214 126.46 23.2539 126.731 23.1189C127.002 22.9838 127.205 22.7812 127.34 22.5787C127.476 22.3761 127.543 22.0384 127.611 21.7683C127.611 21.4307 127.679 21.0931 127.679 20.6879C127.679 20.2828 127.679 19.9452 127.611 19.6751C127.543 19.405 127.476 19.1349 127.34 18.9323C127.205 18.7297 127.002 18.5947 126.731 18.4596C126.46 18.3921 126.122 18.3246 125.716 18.3246H124.701V18.257Z" fill="#303030"/>
<path d="M139.118 9.81641V21.9709C139.118 22.5111 139.05 22.9838 138.847 23.389C138.644 23.7941 138.373 24.1993 138.035 24.5369C137.696 24.8745 137.29 25.1446 136.884 25.3472C136.41 25.5498 135.936 25.6173 135.463 25.6173C134.989 25.6173 134.515 25.5498 134.041 25.3472C133.635 25.1446 133.229 24.8745 132.891 24.5369C132.552 24.1993 132.281 23.7941 132.078 23.389C131.875 22.9838 131.808 22.5111 131.808 21.9709V9.81641H134.041V21.7683C134.041 22.3085 134.177 22.7137 134.447 22.9838C134.718 23.2539 135.056 23.389 135.463 23.389C135.869 23.389 136.207 23.2539 136.478 22.9838C136.749 22.7137 136.884 22.3085 136.884 21.7683V9.81641H139.118Z" fill="#303030"/>
<path d="M141.351 25.5498V9.81641H143.585V25.5498H141.351Z" fill="#303030"/>
<path d="M145.751 25.5498V9.81641H147.984V23.2539H152.452V25.4822H145.751V25.5498Z" fill="#303030"/>
<path d="M153.941 25.5498V9.81641H157.257C158.543 9.81641 159.559 10.154 160.235 10.8968C160.912 11.5721 161.251 12.5849 161.251 13.8679V21.2281C161.251 22.7137 160.912 23.7941 160.168 24.4694C159.423 25.1446 158.408 25.5498 157.054 25.5498H153.941V25.5498ZM156.242 11.9097V23.389H157.257C157.866 23.389 158.34 23.2539 158.611 22.9163C158.882 22.5787 159.017 22.106 159.017 21.4307V13.8679C159.017 13.2602 158.882 12.7875 158.611 12.4499C158.34 12.1123 157.934 11.9097 157.257 11.9097H156.242V11.9097Z" fill="#303030"/>
<path d="M106.291 79.9075V66.335H103.651V64.2417H111.096V66.335H108.456V79.9075H106.291V79.9075Z" fill="#303030"/>
<path d="M111.773 67.9554C111.773 67.3476 111.908 66.7399 112.111 66.2672C112.314 65.7946 112.653 65.3894 112.991 65.0518C113.33 64.7142 113.736 64.5116 114.21 64.3765C114.683 64.2415 115.089 64.1064 115.563 64.1064C116.037 64.1064 116.443 64.174 116.917 64.3765C117.391 64.5116 117.797 64.7817 118.135 65.0518C118.474 65.3894 118.744 65.7946 119.015 66.2672C119.286 66.7399 119.354 67.2801 119.354 67.9554V76.261C119.354 76.9362 119.218 77.4764 119.015 77.9491C118.812 78.4218 118.474 78.8269 118.135 79.097C117.797 79.4346 117.391 79.6372 116.917 79.8398C116.443 79.9748 116.037 80.1099 115.563 80.1099C115.089 80.1099 114.683 80.0424 114.21 79.8398C113.736 79.7047 113.33 79.4346 112.991 79.097C112.653 78.7594 112.314 78.4218 112.111 77.9491C111.908 77.4764 111.773 76.9362 111.773 76.261V67.9554ZM114.007 76.261C114.007 76.8012 114.142 77.2063 114.48 77.4764C114.751 77.7465 115.157 77.8816 115.563 77.8816C115.969 77.8816 116.308 77.7465 116.646 77.4764C116.917 77.2063 117.12 76.8012 117.12 76.261V67.9554C117.12 67.4152 116.985 67.01 116.646 66.7399C116.376 66.4698 115.969 66.3348 115.563 66.3348C115.157 66.3348 114.819 66.4698 114.48 66.7399C114.21 67.01 114.007 67.4152 114.007 67.9554V76.261Z" fill="#303030"/>
<path d="M121.181 67.9554C121.181 67.3476 121.317 66.7399 121.52 66.2672C121.723 65.7946 122.061 65.3894 122.399 65.0518C122.738 64.7142 123.144 64.5116 123.618 64.3765C124.092 64.2415 124.498 64.1064 124.971 64.1064C125.445 64.1064 125.851 64.174 126.325 64.3765C126.799 64.5116 127.205 64.7817 127.544 65.0518C127.882 65.3894 128.153 65.7946 128.423 66.2672C128.694 66.7399 128.762 67.2801 128.762 67.9554V68.7657H126.528V67.9554C126.528 67.4152 126.393 67.01 126.054 66.7399C125.784 66.4698 125.378 66.3348 124.971 66.3348C124.565 66.3348 124.227 66.4698 123.889 66.7399C123.618 67.01 123.415 67.4152 123.415 67.9554V76.261C123.415 76.8012 123.55 77.2063 123.889 77.4764C124.159 77.7465 124.565 77.8816 124.971 77.8816C125.378 77.8816 125.716 77.7465 126.054 77.4764C126.325 77.2063 126.528 76.8012 126.528 76.261V73.2899H124.768V71.3316H128.83V76.261C128.83 76.9362 128.694 77.4764 128.491 77.9491C128.288 78.4218 127.95 78.8269 127.611 79.097C127.273 79.4346 126.867 79.6372 126.393 79.8398C125.919 79.9748 125.513 80.1099 125.039 80.1099C124.565 80.1099 124.159 80.0424 123.685 79.8398C123.212 79.7047 122.806 79.4346 122.467 79.097C122.129 78.7594 121.79 78.4218 121.587 77.9491C121.384 77.4764 121.249 76.9362 121.249 76.261V67.9554H121.181Z" fill="#303030"/>
<path d="M130.725 79.9075V64.2417H137.426V66.335H132.958V70.9267H136.884V73.02H132.958V77.6117H137.426V79.84H130.725V79.9075Z" fill="#303030"/>
<path d="M140.404 79.9075V66.335H137.764V64.2417H145.209V66.335H142.57V79.9075H140.404V79.9075Z" fill="#303030"/>
<path d="M146.292 79.9075V64.2417H148.526V70.9942H151.301V64.2417H153.534V79.9751H151.301V72.9524H148.526V79.9751H146.292V79.9075Z" fill="#303030"/>
<path d="M155.7 79.9075V64.2417H162.401V66.335H157.934V70.9267H161.86V73.02H157.934V77.6117H162.401V79.84H155.7V79.9075Z" fill="#303030"/>
<path d="M163.89 79.9075V64.2417H167.545C170.185 64.2417 171.539 65.7948 171.539 68.8334C171.539 69.7788 171.403 70.5215 171.133 71.1968C170.862 71.872 170.32 72.3447 169.644 72.7499L172.08 79.9075H169.711L167.613 73.2225H166.259V79.9075H163.89V79.9075ZM166.124 66.335V71.2643H167.41C167.816 71.2643 168.155 71.1968 168.358 71.1293C168.561 70.9942 168.764 70.8592 168.899 70.6566C169.034 70.454 169.102 70.1839 169.17 69.9138C169.237 69.6437 169.237 69.2386 169.237 68.8334C169.237 68.4283 169.237 68.0906 169.17 67.753C169.102 67.4829 169.034 67.2128 168.899 66.9427C168.628 66.5376 168.087 66.335 167.275 66.335H166.124Z" fill="#303030"/>
<path d="M112.111 37.0967V49.2512C112.111 49.7914 112.044 50.2641 111.841 50.6692C111.638 51.0744 111.367 51.4795 111.029 51.8171C110.69 52.1548 110.284 52.4249 109.878 52.6274C109.404 52.83 108.93 52.8975 108.456 52.8975C107.983 52.8975 107.509 52.83 107.035 52.6274C106.629 52.4249 106.223 52.1548 105.884 51.8171C105.546 51.4795 105.275 51.0744 105.072 50.6692C104.869 50.2641 104.802 49.7914 104.802 49.2512V37.0967H107.035V49.0486C107.035 49.5888 107.17 49.994 107.441 50.2641C107.712 50.5342 108.05 50.6692 108.456 50.6692C108.863 50.6692 109.201 50.5342 109.472 50.2641C109.742 49.994 109.878 49.5888 109.878 49.0486V37.0967H112.111Z" fill="#3D75D8"/>
<path d="M114.21 52.83V37.0967H116.443V44.2543H116.511L119.828 37.0967H122.061L119.015 43.3765L122.67 52.83H120.301L117.729 45.8749L116.511 48.1708V52.8975H114.21V52.83Z" fill="#3D75D8"/>
<path d="M123.686 52.83V37.0967H127.341C129.98 37.0967 131.334 38.6498 131.334 41.6884C131.334 42.6337 131.199 43.3765 130.928 44.0518C130.657 44.727 130.116 45.1997 129.439 45.6048L131.875 52.7625H129.506L127.408 46.0775H126.055V52.7625H123.686V52.83ZM125.919 39.19V44.1193H127.205C127.611 44.1193 127.95 44.0518 128.153 43.9842C128.356 43.8492 128.559 43.7141 128.694 43.5116C128.83 43.309 128.897 43.0389 128.965 42.7688C129.033 42.4987 129.033 42.0935 129.033 41.6884C129.033 41.2832 129.033 40.9456 128.965 40.608C128.897 40.3379 128.83 40.0678 128.694 39.7977C128.423 39.3925 127.882 39.19 127.07 39.19H125.919V39.19Z" fill="#3D75D8"/>
<path d="M132.078 52.83L135.598 37.0967H137.493L141.013 52.83H138.779L138.102 49.4538H135.056L134.38 52.83H132.078ZM137.629 47.293L136.546 41.6209H136.478L135.395 47.293H137.629Z" fill="#3D75D8"/>
<path d="M142.163 52.83V37.0967H144.397V52.83H142.163Z" fill="#3D75D8"/>
<path d="M146.495 52.83V37.0967H148.661L152.046 46.5502H152.113V37.0967H154.347V52.83H152.249L148.797 43.3765H148.729V52.83H146.495Z" fill="#3D75D8"/>
<path d="M156.377 52.83V37.0967H163.078V39.19H158.611V43.7817H162.537V45.8749H158.611V50.4667H163.078V52.695H156.377V52.83Z" fill="#3D75D8"/>
<path d="M108.186 58.6368H100.334V31.019H108.186V33.0448H102.365V56.6111H108.186V58.6368Z" fill="#F2C63B"/>
<path d="M168.019 58.6368H160.168V56.6111H165.989V33.0448H160.168V31.019H168.019V58.6368Z" fill="#F2C63B"/>
</svg>
