<svg width="241" height="66" viewBox="0 0 241 66" fill="none" xmlns="http://www.w3.org/2000/svg">
<path d="M72.4082 43.1154V30.0771H75.4371C77.6461 30.0771 78.7525 31.3544 78.7563 33.9089C78.7751 34.5784 78.6529 35.2444 78.3976 35.8644C78.131 36.4233 77.687 36.8799 77.1337 37.1643L79.1606 43.1154H77.1679L75.4143 37.5486H74.2756V43.1154H72.4082ZM74.2927 31.8122V35.8813H75.3631C75.6342 35.8933 75.9046 35.8451 76.1545 35.7401C76.3426 35.6566 76.5027 35.5212 76.6156 35.3501C76.7201 35.1524 76.7895 34.9383 76.8206 34.7171C76.8889 34.1389 76.8889 33.5547 76.8206 32.9764C76.7874 32.7481 76.7122 32.5277 76.5985 32.3265C76.4366 32.1381 76.2302 31.9925 75.9977 31.9028C75.7652 31.813 75.5139 31.7819 75.2663 31.8122H74.2927Z" fill="black"/>
<path d="M80.2649 43.1154V30.0771H85.8729V31.8348H82.1494V35.6666H85.3946V37.4242H82.1494V41.2504H85.8729V43.1154H80.2649Z" fill="black"/>
<path d="M87.0911 43.1158V30.0775H89.841C90.367 30.0649 90.8901 30.1591 91.3782 30.3545C91.7771 30.5178 92.1334 30.7691 92.4201 31.0892C92.6876 31.3923 92.8822 31.7517 92.9894 32.1404C93.1089 32.5422 93.1683 32.9592 93.1659 33.3781V33.8528C93.1696 34.1542 93.1429 34.4553 93.0862 34.7514C93.0359 34.9757 92.9514 35.1911 92.8357 35.3901C92.594 35.759 92.2633 36.062 91.8735 36.2717C92.2948 36.4555 92.6402 36.7765 92.8528 37.1816C93.0853 37.7 93.1925 38.2651 93.1659 38.8319V39.5666C93.2421 40.5126 92.9576 41.4525 92.3688 42.2002C91.8071 42.8106 90.9113 43.1158 89.6816 43.1158H87.0911ZM88.9699 31.8126V35.4014H89.8239C90.0558 35.4328 90.292 35.4069 90.5115 35.3261C90.731 35.2452 90.927 35.1119 91.0821 34.9379C91.3249 34.5242 91.4379 34.048 91.4066 33.5702C91.4405 33.1037 91.3141 32.6395 91.048 32.2534C90.8783 32.0886 90.6737 31.9636 90.4491 31.8873C90.2246 31.811 89.9857 31.7855 89.7499 31.8126H88.9699ZM88.9528 37.0799V41.2564H89.767C90.0736 41.2701 90.3793 41.214 90.6608 41.0925C90.8667 40.9924 91.0374 40.8328 91.1504 40.6347C91.2649 40.4169 91.3345 40.1787 91.3554 39.9339C91.3554 39.6683 91.3896 39.3688 91.3896 39.0579C91.3934 38.7706 91.3743 38.4833 91.3326 38.1989C91.306 37.977 91.2322 37.7632 91.1163 37.5716C90.9902 37.4007 90.8158 37.2708 90.6153 37.1986C90.3475 37.1104 90.066 37.0702 89.784 37.0799H88.9528Z" fill="black"/>
<path d="M101.034 30.0771V40.1879C101.039 40.5928 100.962 40.9945 100.807 41.3691C100.654 41.7288 100.432 42.0553 100.152 42.3298C99.8781 42.6058 99.5559 42.8298 99.2012 42.9911C98.8289 43.1497 98.4277 43.2305 98.0226 43.2284C97.6193 43.2312 97.2199 43.1503 96.8498 42.9911C96.49 42.8299 96.1621 42.6059 95.8819 42.3298C95.6008 42.0542 95.3748 41.7282 95.2158 41.3691C95.0543 40.9961 94.9729 40.5938 94.9767 40.1879V30.0771H96.8612V40.0014C96.8447 40.186 96.8654 40.372 96.9221 40.5486C96.9788 40.7252 97.0703 40.8889 97.1914 41.03C97.4164 41.2402 97.7137 41.3572 98.0226 41.3572C98.3316 41.3572 98.6289 41.2402 98.8539 41.03C98.975 40.8889 99.0665 40.7252 99.1232 40.5486C99.1799 40.372 99.2006 40.186 99.1841 40.0014V30.0771H101.034Z" fill="black"/>
<path d="M102.861 43.1154V30.0771H104.746V43.1154H102.861Z" fill="black"/>
<path d="M106.568 43.1154V30.0771H108.452V41.2504H112.176V43.1154H106.568Z" fill="black"/>
<path d="M113.394 43.1155V30.0772H116.178C116.628 30.0456 117.08 30.1077 117.505 30.2596C117.929 30.4114 118.317 30.6496 118.643 30.9589C119.239 31.6496 119.539 32.5439 119.48 33.4512V39.5437C119.522 40.0305 119.465 40.5207 119.311 40.9849C119.157 41.4491 118.911 41.8778 118.586 42.2451C118.237 42.5524 117.83 42.7876 117.388 42.937C116.946 43.0864 116.479 43.1471 116.013 43.1155H113.394ZM115.273 31.8123V41.3578H116.144C116.352 41.3819 116.562 41.3588 116.759 41.2903C116.956 41.2218 117.135 41.1096 117.283 40.9622C117.535 40.6027 117.654 40.1671 117.619 39.7302V33.4512C117.642 33.031 117.533 32.6139 117.305 32.2587C117.163 32.1038 116.985 31.9846 116.787 31.911C116.589 31.8373 116.377 31.8112 116.167 31.8349L115.273 31.8123Z" fill="black"/>
<path d="M186.236 43.1154V31.8122H184.061V30.0771H190.295V31.8348H188.114V43.138L186.236 43.1154Z" fill="black"/>
<path d="M190.79 33.1575C190.779 32.6794 190.875 32.2048 191.069 31.7672C191.237 31.3813 191.488 31.0362 191.804 30.7556C192.1 30.5057 192.442 30.3139 192.811 30.1904C193.362 29.9922 193.955 29.94 194.532 30.0391C195.109 30.1383 195.65 30.3852 196.102 30.7556C196.409 31.0414 196.655 31.3854 196.825 31.7672C197.015 32.206 197.108 32.6801 197.098 33.1575V40.0412C197.111 40.5244 197.018 41.0047 196.825 41.4484C196.654 41.8186 196.408 42.1496 196.102 42.4205C195.802 42.6852 195.455 42.8905 195.077 43.0252C194.343 43.2993 193.534 43.2993 192.8 43.0252C192.426 42.8929 192.084 42.6873 191.792 42.4205C191.477 42.1548 191.226 41.8227 191.058 41.4484C190.86 41.0059 190.765 40.5251 190.779 40.0412L190.79 33.1575ZM192.675 40.0412C192.659 40.2243 192.684 40.4087 192.749 40.5808C192.814 40.7529 192.917 40.9084 193.05 41.0359C193.302 41.2466 193.621 41.3623 193.95 41.3623C194.279 41.3623 194.598 41.2466 194.849 41.0359C194.985 40.9097 195.09 40.7545 195.156 40.5822C195.222 40.4098 195.248 40.2248 195.231 40.0412V33.1575C195.247 32.9731 195.221 32.7875 195.155 32.6143C195.089 32.4412 194.984 32.285 194.849 32.1572C194.599 31.9494 194.282 31.8355 193.956 31.8355C193.629 31.8355 193.313 31.9494 193.062 32.1572C192.929 32.2862 192.826 32.4428 192.761 32.6157C192.696 32.7886 192.671 32.9736 192.686 33.1575L192.675 40.0412Z" fill="black"/>
<path d="M198.647 33.1576C198.64 32.6797 198.735 32.2057 198.926 31.7673C199.097 31.381 199.349 31.0359 199.667 30.7557C199.961 30.5048 200.301 30.3129 200.669 30.1905C201.403 29.9179 202.212 29.9179 202.946 30.1905C203.317 30.3178 203.662 30.5091 203.965 30.7557C204.272 31.0414 204.518 31.3855 204.688 31.7673C204.878 32.2061 204.971 32.6801 204.961 33.1576V33.8132H203.083V33.1576C203.098 32.9732 203.072 32.7876 203.006 32.6144C202.94 32.4413 202.836 32.2851 202.701 32.1573C202.454 31.9435 202.135 31.8286 201.807 31.8351C201.48 31.8302 201.162 31.9449 200.913 32.1573C200.781 32.2863 200.678 32.4429 200.613 32.6158C200.548 32.7887 200.522 32.9737 200.538 33.1576V40.0413C200.522 40.2244 200.547 40.4088 200.612 40.5809C200.677 40.753 200.78 40.9085 200.913 41.0359C201.162 41.2484 201.48 41.363 201.807 41.3581C202.135 41.3646 202.454 41.2498 202.701 41.0359C202.837 40.9097 202.941 40.7546 203.007 40.5823C203.074 40.4099 203.099 40.2249 203.083 40.0413V37.5885H201.585V35.9495H204.961V40.0526C204.975 40.5358 204.881 41.016 204.688 41.4598C204.514 41.8264 204.266 42.1535 203.959 42.4206C203.661 42.6841 203.315 42.8892 202.94 43.0253C202.206 43.2979 201.397 43.2979 200.663 43.0253C200.291 42.8942 199.95 42.6884 199.661 42.4206C199.345 42.1551 199.092 41.8231 198.921 41.4485C198.726 41.0052 198.63 40.5249 198.642 40.0413L198.647 33.1576Z" fill="black"/>
<path d="M206.618 43.1154V30.0771H212.226V31.8348H208.514V35.6666H211.764V37.4242H208.514V41.2504H212.243V43.1154H206.618Z" fill="black"/>
<path d="M214.68 43.1154V31.8122H212.499V30.0771H218.762V31.8348H216.581V43.138L214.68 43.1154Z" fill="black"/>
<path d="M219.564 43.1154V30.0771H221.449V35.6666H223.772V30.0771H225.651V43.1154H223.772V37.3112H221.449V43.1154H219.564Z" fill="black"/>
<path d="M227.421 43.1154V30.0771H233.029V31.8348H229.306V35.6666H232.551V37.4242H229.306V41.2504H233.029V43.1154H227.421Z" fill="black"/>
<path d="M234.248 43.1154V30.0771H237.271C239.484 30.0771 240.592 31.3544 240.596 33.9089C240.614 34.5784 240.492 35.2444 240.237 35.8644C239.97 36.4233 239.526 36.8799 238.973 37.1643L241 43.1154H239.007L237.254 37.5486H236.115V43.1154H234.248ZM236.132 31.8122V35.8813H237.197C237.47 35.8938 237.742 35.8455 237.994 35.7401C238.18 35.6538 238.34 35.519 238.455 35.3501C238.56 35.1531 238.628 34.9385 238.654 34.7171C238.73 34.1393 238.73 33.5542 238.654 32.9764C238.626 32.7478 238.552 32.527 238.438 32.3265C238.276 32.1381 238.069 31.9925 237.837 31.9028C237.605 31.813 237.353 31.7819 237.106 31.8122H236.132Z" fill="black"/>
<path d="M133.361 30.0771V40.1879C133.366 40.5928 133.288 40.9945 133.133 41.3691C132.978 41.7276 132.756 42.0537 132.479 42.3298C132.196 42.6086 131.864 42.8328 131.499 42.9911C131.127 43.1497 130.726 43.2305 130.321 43.2284C129.917 43.2317 129.518 43.1508 129.148 42.9911C128.787 42.8313 128.459 42.6072 128.18 42.3298C127.899 42.0542 127.673 41.7282 127.514 41.3691C127.352 40.9961 127.271 40.5938 127.275 40.1879V30.0771H129.159V40.0014C129.142 40.1869 129.162 40.374 129.219 40.5516C129.276 40.7293 129.368 40.8938 129.49 41.0356C129.714 41.2458 130.012 41.3629 130.321 41.3629C130.63 41.3629 130.927 41.2458 131.152 41.0356C131.394 40.7493 131.513 40.3797 131.482 40.007V30.0771H133.361Z" fill="#608CFF"/>
<path d="M135.132 43.1154V30.0771H137.016V36.0283H137.051L139.8 30.0771H141.685L139.117 35.2992L142.163 43.1154H140.193L138.03 37.3282L137.016 39.2158V43.1154H135.132Z" fill="#608CFF"/>
<path d="M142.989 43.1154V30.0771H146.018C148.23 30.0771 149.337 31.3544 149.337 33.9089C149.356 34.5784 149.233 35.2444 148.978 35.8644C148.716 36.4265 148.271 36.8845 147.714 37.1643L149.741 43.1154H147.748L146.001 37.5486H144.862V43.1154H142.989ZM144.873 31.8122V35.8813H145.944C146.215 35.8939 146.485 35.8456 146.735 35.7401C146.924 35.6583 147.085 35.5226 147.196 35.3501C147.301 35.1524 147.37 34.9383 147.401 34.7171C147.469 34.1389 147.469 33.5547 147.401 32.9764C147.368 32.7481 147.293 32.5277 147.179 32.3265C147.018 32.1386 146.813 31.9932 146.581 31.9035C146.35 31.8137 146.099 31.7824 145.853 31.8122H144.873Z" fill="#608CFF"/>
<path d="M150.003 43.1154L152.935 30.0771H154.501L157.433 43.1154H155.565L154.996 40.2896H152.434L151.865 43.1154H150.003ZM154.649 38.5546L153.726 33.8355H153.692L152.77 38.5546H154.649Z" fill="#608CFF"/>
<path d="M158.412 43.1154V30.0771H160.291V43.1154H158.412Z" fill="#608CFF"/>
<path d="M162.044 43.1154V30.0771H163.855L166.702 37.9329H166.736V30.0771H168.615V43.1154H166.85L163.969 35.2823H163.935V43.1154H162.044Z" fill="#608CFF"/>
<path d="M170.311 43.1154V30.0771H175.919V31.8348H172.19V35.6666H175.435V37.4242H172.19V41.2504H175.919V43.1154H170.311Z" fill="#608CFF"/>
<path d="M130.071 47.9814H123.546V25.0585H130.071V26.737H125.243V46.3029H130.071V47.9814Z" fill="#FDDC53"/>
<path d="M179.99 47.9814H173.471V46.3029H178.299V26.737H173.471V25.0585H179.99V47.9814Z" fill="#FDDC53"/>
<path d="M13.4296 16.8075C12.8603 16.3949 15.9745 14.2021 18.2177 12.7214C19.5044 11.8736 24.3495 9.02523 29.0921 6.41418C28.8871 6.64025 28.6651 6.90587 28.426 7.19976C24.3893 10.5907 19.3735 15.1572 16.9936 17.4179C14.8586 17.7739 13.7997 17.0675 13.4296 16.8075Z" fill="#2A46F3"/>
<path d="M12.5761 24.0807C13.043 24.2842 14.5062 24.8493 17.0056 23.5155C18.8844 20.5823 23.0064 14.4108 26.1947 10.0817C21.9531 13.8061 17.4952 17.9204 16.3736 19.0734C14.5005 20.9949 11.9328 23.8038 12.5761 24.0807Z" fill="#2A46F3"/>
<path d="M40.65 8.93467C39.7903 5.61718 44.1001 0.683326 40.798 0.0559974C37.8944 -0.509163 32.8728 3.30567 29.6788 6.89444C26.4848 10.4832 18.1554 22.9902 16.8061 25.3017C15.4568 27.6132 13.652 30.9533 14.3409 31.072C15.0298 31.1907 17.7569 31.5241 21.2128 26.2286C26.1774 18.548 29.4852 15.4114 31.8138 14.4732C34.1424 13.5351 36.5336 14.1455 38.8395 15.8692C41.0314 17.5138 42.9558 20.0231 45.1022 20.9556C48.0001 22.1707 51.0233 20.0853 49.9472 19.6049C47.6837 18.6428 45.6704 17.1822 44.0596 15.3335C42.4489 13.4849 41.2829 11.2967 40.65 8.93467Z" fill="#608CFF"/>
<path d="M63.697 28.4216C64.3404 28.139 64.699 31.9143 64.8698 34.5819C64.9666 36.1134 65.0236 41.7029 64.9325 47.0889C64.8357 46.795 64.7161 46.4728 64.5795 46.1224C63.6344 40.9512 62.1655 34.3614 61.3855 31.1852C62.137 29.1676 63.2928 28.6025 63.697 28.4216Z" fill="#2A46F3"/>
<path d="M57.7752 24.081C57.3653 24.3806 56.1412 25.3583 56.0273 28.1558C57.6386 31.2133 60.9692 37.8427 63.1555 42.7313C62.0566 37.238 60.6902 31.3546 60.2461 29.8117C59.506 27.2516 58.3389 23.6402 57.7752 24.081Z" fill="#2A46F3"/>
<path d="M56.9558 55.7583C60.2808 56.6795 62.4272 62.8511 64.6248 60.3305C66.5663 58.1094 65.7635 51.8926 64.2206 47.3318C62.6777 42.7709 55.931 29.3992 54.5931 27.0821C53.2551 24.7649 51.2397 21.5379 50.7956 22.0748C50.3515 22.6117 48.6777 24.8101 51.587 30.4052C55.8058 38.5153 56.8875 42.9235 56.5573 45.4102C56.2442 47.8065 54.4849 49.632 51.8318 50.7454C49.3039 51.8135 46.1384 52.2091 44.271 53.6164C41.7602 55.504 42.0677 59.1493 43.0241 58.4598C44.9893 56.9929 47.264 55.9876 49.6772 55.5196C52.0904 55.0517 54.579 55.1333 56.9558 55.7583Z" fill="#608CFF"/>
<path d="M28.4265 65.8294C28.3582 66.5245 24.8795 64.9477 22.4712 63.7552C21.0821 63.077 16.2085 60.3303 11.5286 57.5385C11.8303 57.6006 12.1719 57.6571 12.5477 57.7193C17.5294 59.4883 24.0141 61.5172 27.1797 62.4384C28.5518 64.1169 28.4721 65.3885 28.4265 65.8294Z" fill="#2A46F3"/>
<path d="M35.2017 62.9245C35.1447 62.4215 34.9056 60.8843 32.5201 59.3866C29.0187 59.2397 21.5717 58.7763 16.2029 58.2054C21.549 60.0027 27.3676 61.7773 28.9333 62.1616C31.5465 62.8115 35.2814 63.6423 35.2017 62.9245Z" fill="#2A46F3"/>
<path d="M7.94732 46.3654C5.48779 48.7617 -0.974198 47.4958 0.124624 50.6776C1.0925 53.4526 6.95668 55.8601 11.6537 56.8153C16.3507 57.7704 31.4553 58.6746 34.1482 58.6746C36.8412 58.6746 40.6615 58.5616 40.411 57.9117C40.1604 57.2617 39.0844 54.7242 32.7477 54.4303C23.5643 54.0008 19.1747 52.7348 17.1706 51.2032C15.1665 49.6716 14.5289 47.3036 14.8932 44.4665C15.2292 41.7594 16.4589 38.8488 16.1686 36.5543C15.7757 33.4572 12.4451 31.8973 12.5647 33.0616C12.8588 35.4814 12.5961 37.9359 11.7963 40.2403C10.9965 42.5447 9.6805 44.639 7.94732 46.3654Z" fill="#608CFF"/>
<path d="M44.0717 29.4273C44.977 26.6015 44.5158 23.4932 41.7944 20.3396C38.7257 16.8073 36.1693 14.7784 32.7875 15.5922C30.1287 16.2365 26.2515 21.159 24.4296 32.824C21.3153 33.3891 18.6793 35.2824 17.2161 39.3742C15.6447 43.7711 15.1266 46.9812 17.5178 49.4962C19.4308 51.5082 25.8529 52.4124 37.3536 47.942C39.4203 50.4174 42.4776 51.7568 46.8444 50.8978C51.4561 49.9879 54.4963 48.7897 55.4528 45.4666C56.1986 42.816 53.722 36.9101 44.0717 29.4273Z" fill="white"/>
<g style="mix-blend-mode:multiply">
<path d="M17.501 49.5134C19.4766 51.5931 26.2802 52.4917 38.5323 47.4788C44.425 45.0712 45.7344 40.8494 39.6198 37.1533C32.1159 32.632 20.9056 29.0206 17.1992 39.4139C15.6279 43.7713 15.1098 46.9814 17.501 49.5134Z" fill="#FDDC53"/>
</g>
<g style="mix-blend-mode:multiply">
<path d="M32.7703 15.6039C29.9749 16.2821 25.8187 21.6963 24.1392 34.7515C23.3307 41.0361 26.3767 44.2293 32.6394 40.7931C40.3368 36.5713 49.0192 28.676 41.7488 20.3399C38.7085 16.8077 36.1522 14.7787 32.7703 15.6039Z" fill="#FDDC53"/>
</g>
<g style="mix-blend-mode:multiply">
<path d="M55.436 45.4668C56.2274 42.7145 53.5344 36.4242 42.9106 28.5572C37.7865 24.7593 33.4937 25.8049 33.4083 32.9089C33.3115 41.635 35.9362 53.0286 46.8105 50.898C51.4392 49.9881 54.4795 48.7899 55.436 45.4668Z" fill="#FDDC53"/>
</g>
</svg>
