<svg xmlns="http://www.w3.org/2000/svg">
  <symbol id="btn_svg_1" viewBox="0 0 48 29">
    <path d="M7.69078 6.21101C8.42534 5.77951 9.33184 5.27095 10.6467 4.66202L12.0683 3.92311C13.9463 2.95933 15.7113 2.06669 16.8426 2.6095C18.6016 3.44777 20.1357 4.42784 21.1011 5.10694C21.1605 5.101 21.1664 5.16025 21.2254 5.15434C21.2848 5.14839 21.3439 5.14248 21.3379 5.08323C21.3914 5.01802 21.3796 4.89989 21.3143 4.84696C19.5137 2.99846 17.1329 0.730371 16.3451 0.630145C14.8998 0.536224 8.77438 4.49114 8.17013 5.02892C7.61936 5.50187 7.47106 5.81482 7.41758 5.88002L7.42351 5.93927L7.42944 5.99853C7.37597 6.06373 7.4472 6.17592 7.50661 6.16997C7.51326 6.22877 7.57229 6.22286 7.69074 6.21101L7.69078 6.21101Z" fill="var(--svg_color_2)"/>
    <path d="M22.2864 24.1428C19.6993 23.3968 17.7899 23.0473 16.1014 23.2546C14.4129 23.4618 10.6691 23.8901 9.20168 23.9454C6.16679 23.7467 5.79004 24.8039 4.87691 25.9202C3.08611 28.1095 1.67844 29.1067 1.39432 26.2689C1.1978 24.3061 2.12738 20.6692 2.61674 19.0961C3.26817 17.0019 3.94338 16.3839 5.68687 12.1398L5.68117 12.0829C6.59537 9.81306 7.28944 8.19619 7.48696 7.88971C7.83715 7.39629 9.46392 6.54535 11.2037 5.68351L12.5592 4.97474C14.1917 4.18076 15.6039 3.46632 16.1466 3.75582C18.7295 5.04497 20.8209 6.55509 21.3806 7.01498C21.3806 7.01498 22.9746 8.1161 22.3876 9.09211C22.1901 9.39823 21.9812 9.59125 21.6986 9.61954C21.1393 9.73266 20.4104 9.29008 20.2237 9.13668C18.7933 7.96173 17.047 7.04755 16.9847 6.99631C16.9224 6.94543 16.8037 6.89982 16.6907 6.91113C15.397 7.09776 12.8717 8.09573 12.4213 11.0068C11.9988 13.6284 12.1635 16.1017 14.6737 18.3725C16.4319 19.9735 18.7215 20.5809 19.9477 20.8595C22.0374 21.6552 22.5569 22.8301 22.7341 23.5955C22.6465 24.1067 22.4561 24.1258 22.2864 24.1428Z" fill="var(--svg_color_1)"/>
    <path d="M32.7323 0.713369C32.0452 0.822592 29.8247 3.01408 28.1465 4.89116C28.0837 4.94685 28.0694 5.07069 28.118 5.13882C28.1665 5.20734 28.1665 5.20734 28.2218 5.21372C28.2774 5.22013 28.2774 5.22013 28.3399 5.16439C29.6335 4.18382 30.9613 3.39553 32.2677 2.79333C33.3932 2.29567 34.9239 3.16243 36.6065 4.17217C36.8142 4.32158 37.0774 4.4774 37.2922 4.56509L37.9778 4.958C39.1895 5.66252 40.0346 6.13636 40.7131 6.59101C40.7616 6.65954 40.8797 6.61021 40.9422 6.55447C41.005 6.49877 41.0121 6.43705 41.0193 6.37494L41.0264 6.31283C41.0336 6.25071 41.0336 6.25071 40.9851 6.18258L40.9922 6.12046C40.9922 6.12046 40.9994 6.05835 40.9437 6.05194C40.8057 5.78507 40.6052 5.57355 40.3009 5.28753C39.7408 4.78439 34.1481 0.625177 32.7322 0.713349L32.7323 0.713369Z" fill="var(--svg_color_2)"/>
    <path d="M25.674 24.0462C28.272 23.339 30.1864 23.0181 31.8716 23.2506C33.5568 23.4831 37.2938 23.9674 38.7602 24.0446C41.7977 23.8914 42.1586 24.9541 43.0549 26.084C44.8128 28.2998 46.2054 29.3179 46.5319 26.4847C46.7578 24.5251 45.8828 20.8746 45.417 19.2944C44.797 17.1907 44.1311 16.5627 42.4513 12.293L42.4579 12.2362C41.5777 9.95286 40.908 8.32579 40.715 8.01639C40.3723 7.51778 38.7584 6.64259 37.0318 5.75481L35.687 5.02583C34.0666 4.20751 32.6652 3.47201 32.1183 3.75336C29.5164 5.00371 27.4026 6.48235 26.8361 6.93381C26.8361 6.93381 25.2258 8.01096 25.798 8.99564C25.991 9.30469 26.197 9.50081 26.4791 9.53333C27.0366 9.6548 27.7721 9.22319 27.9611 9.07259C29.4089 7.91918 31.1686 7.03125 31.2318 6.98094C31.2948 6.931 31.4142 6.88717 31.527 6.90017C32.8177 7.10614 35.3278 8.1418 35.7346 11.0593C36.1179 13.6869 35.9161 16.1575 33.3722 18.3904C31.5902 19.965 29.2918 20.538 28.0616 20.7982C25.9602 21.5626 25.4232 22.7296 25.2345 23.4922C25.3144 24.0047 25.5046 24.0266 25.674 24.0462Z" fill="var(--svg_color_1)"/>
  </symbol>

  <symbol id="btn_svg_2" viewBox="0 0 23 26">
    <path d="M16.8214 0.0128483C17.498 0.200987 19.4718 2.64477 20.938 4.71219C20.9946 4.77503 20.9946 4.90033 20.938 4.96277C20.8815 5.02561 20.8815 5.02561 20.8253 5.02561C20.7687 5.02561 20.7687 5.02561 20.7125 4.96277C19.5284 3.83477 18.2876 2.89484 17.0469 2.14318C15.9756 1.51673 14.34 2.20603 12.5355 3.02061C12.31 3.1459 12.0279 3.27119 11.8024 3.33403L11.0693 3.64746C9.77239 4.21146 8.86993 4.58733 8.13681 4.96321C8.08025 5.02606 7.96748 4.96321 7.91129 4.90037C7.85473 4.83753 7.85473 4.77508 7.85473 4.71223V4.64939C7.85473 4.58654 7.85473 4.58654 7.91129 4.52409V4.46125C7.91129 4.46125 7.91129 4.3984 7.96785 4.3984C8.13717 4.14783 8.36269 3.95969 8.70097 3.70911C9.32096 3.27119 15.4115 -0.238163 16.8214 0.0128312L16.8214 0.0128483Z" fill="var(--svg_color_4)"/>
    <path d="M21.2031 24.1229C18.6789 23.1178 16.7958 22.577 15.0787 22.6153C13.3615 22.6535 9.55721 22.707 8.07738 22.6153C5.04836 22.1127 4.56352 23.1323 3.53385 24.1573C1.51451 26.1676 0 27.0239 0 24.1573C0 22.1746 1.29973 18.6303 1.9496 17.106C2.81469 15.0768 3.55521 14.5264 5.7337 10.4563V10.3989C6.88047 8.22025 7.7404 6.67269 7.96967 6.38595C8.37112 5.92754 10.091 5.23939 11.9256 4.55165L13.3587 3.97853C15.0787 3.34792 16.5693 2.7748 17.0853 3.11867C19.5506 4.66662 21.4998 6.38633 22.0158 6.90232C22.0158 6.90232 23.5065 8.1632 22.8187 9.08055C22.5894 9.36693 22.3601 9.53905 22.0733 9.53905C21.5001 9.59618 20.8123 9.08056 20.6402 8.90844C19.3213 7.59012 17.6589 6.50098 17.6014 6.44348C17.5439 6.38635 17.4293 6.32886 17.3146 6.32886C15.9962 6.38596 13.3587 7.1312 12.6134 9.99755C11.9252 12.5771 11.842 15.0672 14.1354 17.5896C15.7407 19.3669 17.9799 20.2036 19.1838 20.605C21.2031 21.6101 21.6069 22.8372 21.7079 23.6204C21.5685 24.1229 21.3753 24.1229 21.2031 24.1229Z" fill="var(--svg_color_3)"/>
  </symbol>

  <symbol id="btn_svg_3" viewBox="0 0 23 26">
    <path d="M6.17859 0.0128483C5.50203 0.200987 3.52819 2.64477 2.06195 4.71219C2.00539 4.77503 2.00539 4.90033 2.06195 4.96277C2.11851 5.02561 2.11851 5.02561 2.17471 5.02561C2.23127 5.02561 2.23127 5.02561 2.28748 4.96277C3.47164 3.83477 4.71235 2.89484 5.95306 2.14318C7.02442 1.51673 8.66001 2.20603 10.4645 3.02061C10.69 3.1459 10.9721 3.27119 11.1976 3.33403L11.9307 3.64746C13.2276 4.21146 14.1301 4.58733 14.8632 4.96321C14.9197 5.02606 15.0325 4.96321 15.0887 4.90037C15.1453 4.83753 15.1453 4.77508 15.1453 4.71223V4.64939C15.1453 4.58654 15.1453 4.58654 15.0887 4.52409V4.46125C15.0887 4.46125 15.0887 4.3984 15.0322 4.3984C14.8628 4.14783 14.6373 3.95969 14.299 3.70911C13.679 3.27119 7.58853 -0.238163 6.17856 0.0128312L6.17859 0.0128483Z" fill="var(--svg_color_4)"/>
    <path d="M1.79689 24.1229C4.32107 23.1178 6.20417 22.577 7.92133 22.6153C9.6385 22.6535 13.4428 22.707 14.9226 22.6153C17.9516 22.1127 18.4365 23.1323 19.4661 24.1573C21.4855 26.1676 23 27.0239 23 24.1573C23 22.1746 21.7003 18.6303 21.0504 17.106C20.1853 15.0768 19.4448 14.5264 17.2663 10.4563V10.3989C16.1195 8.22025 15.2596 6.67269 15.0303 6.38595C14.6289 5.92754 12.909 5.23939 11.0744 4.55165L9.64127 3.97853C7.92134 3.34792 6.43071 2.7748 5.91465 3.11867C3.4494 4.66662 1.50021 6.38633 0.984152 6.90232C0.984152 6.90232 -0.506495 8.1632 0.181326 9.08055C0.410597 9.36693 0.639877 9.53905 0.926651 9.53905C1.49985 9.59618 2.18768 9.08056 2.35982 8.90844C3.67867 7.59012 5.34109 6.50098 5.39859 6.44348C5.45609 6.38635 5.57072 6.32886 5.68537 6.32886C7.00384 6.38596 9.64126 7.1312 10.3866 9.99755C11.0748 12.5771 11.158 15.0672 8.86459 17.5896C7.25926 19.3669 5.02011 20.2036 3.81623 20.605C1.79689 21.6101 1.3931 22.8372 1.29205 23.6204C1.43149 24.1229 1.62474 24.1229 1.79689 24.1229Z" fill="var(--svg_color_3)"/>
  </symbol>

  <symbol id="svg_burger" viewBox="0 0 26 19">
    <path d="M25 1.5H1" stroke="var(--svg_color_1)" stroke-width="2" stroke-linecap="round"/>
    <path d="M25 9.5H1" stroke="var(--svg_color_1)" stroke-width="2" stroke-linecap="round"/>
    <path d="M25 17.5H1" stroke="var(--svg_color_1)" stroke-width="2" stroke-linecap="round"/>
  </symbol>

  <symbol id="svg_burger_close" viewBox="0 0 21 21">
    <path d="M20.0001 19.4588L1.5564 1.01514" stroke="var(--svg_color_1)" stroke-width="2" stroke-linecap="round"/>
    <path d="M20.0001 1.54118L1.5564 19.9849" stroke="var(--svg_color_1)" stroke-width="2" stroke-linecap="round"/>
  </symbol>

  <symbol id="svg_fb" viewBox="0 0 50 50">
    <circle cx="25" cy="25" r="25" fill="var(--svg_color_3)"/>
    <path d="M32 17.2857H29.1487C27.4691 17.2857 26.8 17.6757 26.8 18.8337V21.5714H32L31.1333 25.8571H26.8V37H21.6V25.8571H19V21.5714H21.6V19.1937C21.6 15.5723 23.0612 13 27.3035 13C29.5759 13 32 13.8571 32 13.8571V17.2857Z" fill="var(--svg_color_1"/>
  </symbol>

  <symbol id="svg_twitter" viewBox="0 0 50 50">
    <circle cx="25" cy="25" r="25" fill="var(--svg_color_3)"/>
    <path fill-rule="evenodd" clip-rule="evenodd" d="M25.1101 20.7883L25.1686 21.5669L24.1932 21.4715C20.6425 21.1061 17.5406 19.8668 14.9069 17.7853L13.6192 16.7525L13.2875 17.5152C12.5853 19.2153 13.034 21.0108 14.4971 22.2183C15.2775 22.8857 15.1019 22.981 13.7558 22.5837C13.2875 22.4566 12.8779 22.3613 12.8388 22.4089C12.7023 22.5202 13.1705 23.9661 13.5412 24.5381C14.0484 25.3325 15.0824 26.1111 16.214 26.5718L17.1699 26.9373L16.0384 26.9531C14.9458 26.9531 14.9069 26.969 15.0239 27.3027C15.4141 28.3355 16.9553 29.4318 18.672 29.9084L19.8816 30.2422L18.8281 30.7506C17.2674 31.4815 15.4336 31.8946 13.5997 31.9263C12.7218 31.9423 12 32.0058 12 32.0535C12 32.2124 14.3801 33.1021 15.7653 33.4517C19.9206 34.4844 24.8564 34.0395 28.5631 32.2759C31.1969 31.0207 33.8306 28.5261 35.0596 26.1111C35.723 24.8241 36.3862 22.4725 36.3862 21.3444C36.3862 20.6135 36.4448 20.5182 37.5373 19.6443C38.1811 19.1359 38.7858 18.5798 38.9029 18.4208C39.098 18.119 39.0785 18.119 38.0836 18.3891C36.4253 18.8658 36.1912 18.8022 37.0105 18.0872C37.6153 17.5788 38.3371 16.6572 38.3371 16.3871C38.3371 16.3394 38.0445 16.4189 37.7128 16.5619C37.3617 16.7207 36.5814 16.9591 35.9961 17.1021L34.9426 17.3722L33.9866 16.8479C33.4599 16.5619 32.7186 16.2441 32.3284 16.1488C31.3334 15.9263 29.8117 15.9581 28.9143 16.2123C26.4756 16.9273 24.9345 18.7704 25.1101 20.7883Z" fill="var(--svg_color_1"/>
  </symbol>

  <symbol id="svg_trident" viewBox="0 0 43 74">
    <path fill-rule="evenodd" clip-rule="evenodd" d="M29.3586 48.396C29.0621 48.544 28.7655 48.544 28.469 48.692C28.0241 47.656 27.5793 46.472 27.1345 45.436V45.288C25.0586 40.848 23.131 36.408 23.131 31.82V1.628C22.9828 0.74 22.2414 0 21.3517 0C20.4621 0 19.7207 0.74 19.7207 1.628V31.82C19.7207 36.408 17.7931 40.848 15.8655 45.288L15.7172 45.436C15.569 45.88 15.2724 46.472 14.9759 47.064C14.6793 47.508 14.531 48.1 14.3828 48.544C14.2345 48.544 13.9379 48.396 13.7897 48.396C13.6414 48.396 13.4931 48.248 13.3448 48.248C13.0483 48.1 12.6034 47.952 12.3069 47.952C11.269 47.656 10.5276 47.36 10.0828 46.916C9.48966 46.62 9.04483 45.88 9.04483 44.4C9.04483 42.92 9.48965 42.032 9.93448 41.44C10.3793 40.848 10.9724 40.552 11.4172 40.552C12.1586 40.404 12.7517 39.664 12.6034 38.776V38.628C12.6034 38.48 12.6034 38.332 12.6034 38.036C12.6034 37.444 12.4552 36.704 12.3069 35.52C12.0103 33.152 11.7138 29.6 11.1207 24.42C9.78621 13.468 2.66897 10.064 2.22414 9.768C2.07586 9.62 1.77931 9.62 1.63103 9.62C1.33448 9.62 1.03793 9.768 0.741379 9.916C0.296552 10.212 0 10.804 0 11.396V59.348C0 60.236 0.741379 60.976 1.63103 60.976H12.0103C12.9 69.708 20.1655 73.556 20.4621 73.704C20.7586 74 21.0552 74 21.2034 74H21.3517C21.5 74 21.7966 74 22.0931 73.852C22.5379 73.556 29.8034 69.856 30.8414 61.124H41.369C42.2586 61.124 43 60.384 43 59.496V11.396C43 10.804 42.7034 10.36 42.2586 9.916C41.8138 9.62 41.2207 9.472 40.7759 9.768C40.4793 9.916 33.0655 13.32 31.731 24.272C31.1379 29.452 30.6931 33.004 30.5448 35.372C30.3966 36.556 30.3966 37.444 30.2483 37.888C30.2483 38.184 30.2483 38.332 30.2483 38.48V38.628C30.2483 39.516 30.6931 40.256 31.5828 40.404C32.4724 40.552 33.9552 41.588 33.9552 44.252C33.9552 45.584 33.6586 46.324 33.2138 46.768C32.769 47.212 31.8793 47.508 30.6931 47.804C30.5448 47.804 30.3966 47.804 30.3966 47.952C29.9517 48.248 29.6552 48.396 29.3586 48.396ZM27.5793 60.976H15.2724V61.124C16.0138 66.452 19.7207 69.412 21.2034 70.448C22.9828 69.412 26.8379 66.452 27.5793 60.976ZM26.3931 52.836C26.9862 54.612 27.431 56.092 27.5793 57.424V57.572H23.131C23.4276 55.204 24.4655 53.724 26.3931 52.836ZM9.34138 37.74C8.0069 38.48 5.78276 40.404 5.78276 44.4C5.78276 47.064 6.67241 48.544 7.85862 49.58C8.89655 50.616 10.3793 50.912 11.269 51.356H11.4172L11.8621 51.504C12.0103 51.504 12.1586 51.504 12.1586 51.652C12.3069 51.652 12.4552 51.8 12.7517 51.8C12.9 51.8 12.9 51.8 13.0483 51.8H13.1966C12.6034 53.724 12.1586 55.648 12.0103 57.424V57.572H3.26207V14.504L3.41034 14.652C5.18966 16.28 7.41379 19.536 8.0069 24.716C8.74828 31.672 9.1931 35.816 9.34138 37.74ZM15.2724 57.572C15.4207 56.24 15.7172 54.612 16.3103 52.984C18.0897 53.872 19.1276 55.352 19.4241 57.572V57.72L15.2724 57.572ZM33.5103 37.74C34.9931 38.48 37.069 40.404 37.069 44.4C37.069 47.064 36.1793 48.544 34.9931 49.58C33.8069 50.616 32.4724 50.912 31.4345 51.208H31.2862C30.9897 51.208 30.6931 51.356 30.3966 51.504C30.2483 51.652 29.9517 51.8 29.6552 51.8H29.5069V51.948C30.1 53.872 30.5448 55.796 30.6931 57.572V57.72H39.5897V14.652L39.4414 14.8C37.6621 16.428 35.2897 19.536 34.6966 25.012C34.1034 31.672 33.8069 35.816 33.5103 37.74ZM17.6448 49.58C19.2759 50.468 20.4621 51.504 21.3517 52.836V52.688C22.2414 51.356 23.4276 50.32 25.2069 49.58H25.3552V49.432C24.9103 48.544 24.6138 47.656 24.169 46.62V46.472L24.0207 46.176C23.2793 44.4 22.3897 42.476 21.6483 40.404V40.256V40.404C21.0552 42.328 20.1655 44.104 19.4241 45.88L19.1276 46.472C18.9793 46.768 18.9793 46.916 18.831 47.212C18.2379 48.1 17.9414 48.84 17.6448 49.58Z" fill="var(--svg_color_3)"/>
  </symbol>

  <symbol id="svg_phone" viewBox="0 0 33 33">
    <path d="M32.2103 30.6488C27.9963 32.7569 23.2389 33.4482 18.6701 32.7194C14.1992 32.0073 9.91 29.9388 6.48605 26.5154C3.06184 23.092 0.993028 18.8042 0.280471 14.3343C-0.450597 9.74886 0.247393 4.97257 2.37593 0.747489C2.5503 0.402434 2.82874 0 2.82874 0L12.8639 10.2788L7.65069 15.5951C8.11609 16.5698 8.66199 17.5157 9.28717 18.4219C9.98411 19.432 10.787 20.3987 11.6957 21.3062C12.6045 22.2147 13.5704 23.0173 14.5806 23.7141C15.4871 24.3404 16.4333 24.8849 17.4082 25.3502L22.8499 19.9588L33 30.1885C33 30.1885 32.2937 30.6146 32.2099 30.649L32.2103 30.6488Z" fill="var(--svg_color_1)"/>
  </symbol>

  <symbol id="svg_email" viewBox="0 0 33 26">
    <path fill-rule="evenodd" clip-rule="evenodd" d="M0.0285645 8.22882V26.0001H32.7143V8.05158C29.0712 12.4726 23.093 15.2287 16.3482 15.2287C9.63204 15.2287 3.67594 12.5984 0.0285645 8.22882ZM32.4973 0H0.199072C1.45955 6.41912 8.07094 11.5144 16.3482 11.5144C24.6254 11.5144 31.2368 6.41912 32.4973 0Z" fill="var(--svg_color_1)"/>
  </symbol>

  <symbol id="svg_adress" viewBox="0 0 31 37">
    <path fill-rule="evenodd" clip-rule="evenodd" d="M15.7913 36.7105C15.7913 36.7105 31 28.7059 31 15.4983C31 7.09874 24.1908 0.289551 15.7913 0.289551C7.39171 0.289551 0.58252 7.09874 0.58252 15.4983C0.58252 28.7059 15.7913 36.7105 15.7913 36.7105ZM15.7912 23.5024C20.2121 23.5024 23.7958 19.9186 23.7958 15.4978C23.7958 11.0769 20.2121 7.49316 15.7912 7.49316C11.3704 7.49316 7.78662 11.0769 7.78662 15.4978C7.78662 19.9186 11.3704 23.5024 15.7912 23.5024Z" fill="var(--svg_color_1)"/>
  </symbol>

  <symbol id="svg_branch" viewBox="0 0 103 201">
    <path d="M93.3476 152.172C93.3476 152.172 93.0598 170.79 81.4237 181.506C69.7875 192.222 51.2092 190.978 51.2092 190.978C51.2092 190.978 51.497 172.361 63.1331 161.645C74.7693 150.929 93.3476 152.172 93.3476 152.172Z" fill="var(--svg_color_3)"/>
    <path d="M9.14559 152.172C9.14559 152.172 9.43331 170.79 21.0695 181.506C32.7057 192.222 51.2839 190.978 51.2839 190.978C51.2839 190.978 50.9962 172.361 39.36 161.645C27.7238 150.929 9.14559 152.172 9.14559 152.172Z" fill="var(--svg_color_3)"/>
    <path d="M93.3473 108.448C93.3473 108.448 93.0596 127.065 81.4234 137.782C69.7872 148.498 51.209 147.254 51.209 147.254C51.209 147.254 51.4967 128.637 63.1329 117.921C74.7691 107.204 93.3473 108.448 93.3473 108.448Z" fill="var(--svg_color_3)"/>
    <path d="M9.14538 108.448C9.14538 108.448 9.4331 127.065 21.0693 137.782C32.7054 148.498 51.2837 147.254 51.2837 147.254C51.2837 147.254 50.996 128.637 39.3598 117.921C27.7236 107.204 9.14538 108.448 9.14538 108.448Z" fill="var(--svg_color_3)"/>
    <path d="M93.3475 60.296C93.3475 60.296 93.0598 78.9136 81.4236 89.6297C69.7875 100.346 51.2092 99.1024 51.2092 99.1024C51.2092 99.1024 51.4969 80.4848 63.1331 69.7687C74.7693 59.0526 93.3475 60.296 93.3475 60.296Z" fill="var(--svg_color_3)"/>
    <path d="M9.14559 60.296C9.14559 60.296 9.43331 78.9136 21.0695 89.6297C32.7057 100.346 51.2839 99.1024 51.2839 99.1024C51.2839 99.1024 50.9962 80.4848 39.36 69.7687C27.7238 59.0526 9.14559 60.296 9.14559 60.296Z" fill="var(--svg_color_3)"/>
    <path d="M93.3473 9.93048C93.3473 9.93048 93.0596 28.5481 81.4234 39.2642C69.7872 49.9802 51.209 48.7369 51.209 48.7369C51.209 48.7369 51.4967 30.1193 63.1329 19.4032C74.7691 8.6871 93.3473 9.93048 93.3473 9.93048Z" fill="var(--svg_color_3)"/>
    <path d="M9.14538 9.93051C9.14538 9.93051 9.4331 28.5481 21.0693 39.2642C32.7054 49.9803 51.2837 48.7369 51.2837 48.7369C51.2837 48.7369 50.996 30.1193 39.3598 19.4032C27.7236 8.68714 9.14538 9.93051 9.14538 9.93051Z" fill="var(--svg_color_3)"/>
  </symbol>

  <symbol id="svg_flower" viewBox="0 0 48 44">
    <path d="M12.8223 22.8131C18.4804 22.8131 24.6201 26.0635 27.8104 27.9897C30.4589 29.6149 31.9035 31.3605 31.7831 32.8654C31.6627 34.4304 29.7967 36.1158 26.7269 37.3799C17.9989 40.9915 12.2805 41.7138 9.0301 41.7138C5.83986 41.7138 3.97387 40.9313 3.31175 40.2691C1.32537 38.1624 1.32537 35.3935 3.31175 29.7955C4.99716 25.1005 8.1272 22.8131 12.8223 22.8131ZM12.8223 21.0073C8.00681 21.0073 3.79329 23.1743 1.62634 29.1936C-0.299841 34.5508 -0.901773 38.4633 1.9875 41.5332C3.07097 42.6769 5.41851 43.5798 9.0301 43.5798C13.3038 43.5798 19.3833 42.3759 27.389 39.0653C34.4918 36.1158 36.117 30.9994 28.7133 26.4849C24.0182 23.5354 18.0591 21.0073 12.8223 21.0073Z" fill="var(--svg_color_1)"/>
    <path d="M22.2723 1.80579C24.4995 1.80579 26.7266 3.31062 30.0373 7.16298C32.3848 9.87167 33.2275 12.5202 32.7459 15.3493C31.5421 21.9705 23.0548 27.3277 19.5035 29.3141C17.7578 30.2771 16.1928 30.8189 14.9288 30.8189C14.0259 30.8189 13.3638 30.5179 12.822 29.9762C11.8589 28.8927 11.4978 26.6054 11.8589 23.7763C13.9657 7.16298 19.0821 2.40773 20.8879 1.98637C21.3694 1.86599 21.7908 1.80579 22.2723 1.80579ZM22.2723 0C21.7306 0 21.1287 0.0601929 20.5267 0.240772C17.1559 1.08348 12.0997 7.64453 10.1133 23.5355C9.391 29.0733 11.1366 32.6247 14.989 32.6247C16.4938 32.6247 18.2996 32.0829 20.4063 30.9393C29.6159 25.7627 40.1497 16.1318 31.3615 6.01931C28.2315 2.34753 25.5228 0 22.2723 0Z" fill="var(--svg_color_1)"/>
    <path d="M26.4862 15.1686C27.8706 15.1686 29.7366 15.9512 31.723 17.456C45.0858 27.5082 46.711 34.3101 46.1693 36.1159C45.3868 38.8847 43.0393 40.2692 37.1403 41.473C36.1772 41.6536 35.2743 41.774 34.4316 41.774C31.8433 41.774 29.7366 40.9313 28.0512 39.1857C23.4765 34.5508 23.0551 25.1607 23.1153 21.3685C23.1153 16.2521 24.9211 15.1686 26.4862 15.1686ZM26.4862 13.3629C23.4163 13.3629 21.3697 15.891 21.3095 21.3083C21.1892 31.0596 23.8377 43.5196 34.4316 43.5196C35.3947 43.5196 36.418 43.3992 37.5015 43.2187C43.0995 42.1352 46.7712 40.6303 47.9149 36.5974C48.878 33.2266 45.6276 25.6423 32.8064 16.0114C30.4589 14.2657 28.2919 13.3629 26.4862 13.3629Z" fill="var(--svg_color_1)"/>
  </symbol>

  <symbol id="svg_hand" viewBox="0 0 90 99">
    <path d="M69.2073 60.0539C72.1254 61.9664 74.4373 63.2306 76.705 64.1521C78.9596 65.0813 79.4231 65.1041 80.2405 64.9555C80.6871 64.8743 81.2462 64.5967 81.5131 64.0913C81.7823 63.58 81.8048 63.3375 81.6707 62.8148C81.3908 61.7232 80.5389 60.8586 76.6052 57.6672C73.9858 55.5339 69.1013 50.8483 66.9249 48.381C65.6267 46.9183 62.3352 42.6795 59.4323 38.7316C55.8494 33.8694 52.0769 29.3946 49.589 27.0554C47.596 25.1864 46.3716 24.2403 43.6331 22.4544C40.9508 20.7051 39.6936 20.1138 37.5146 19.578C37.2325 19.5088 36.3751 19.3008 36.3061 19.1739C36.3154 19.0171 36.22 18.3432 36.0841 17.7117C35.4832 14.6829 33.6338 12.5535 30.5891 11.3815C28.6788 10.6446 25.8995 10.1929 23.8302 10.283C22.7898 10.3233 18.8392 11.1437 17.789 11.5369C15.996 12.2018 14.7049 12.9405 12.6718 14.467C9.54775 16.8397 7.33435 19.6635 6.43813 22.4191C5.54154 25.2013 5.3625 27.5343 5.85632 29.9806C6.37816 32.5944 7.51174 34.3263 10.0346 36.368C10.3782 36.6567 10.3782 36.6567 10.5034 37.7364C10.6957 39.5093 11.6825 44.2537 12.2055 45.9253C12.751 47.6511 13.9269 50.8736 15.2757 54.3359C17.6275 60.3434 18.1057 61.7639 19.2142 66.0357C19.9102 68.7498 20.3031 70.5079 20.3839 71.2624C20.8032 74.8954 21.0712 77.8297 21.2048 80.2319C21.2773 81.5121 21.3975 83.055 21.4645 83.3161C21.6403 84.0017 22.2752 84.8909 22.7995 85.181C24.4132 86.0256 27.0948 84.7835 29.3213 82.1583C31.0243 80.1473 33.8739 75.5188 35.1833 72.6354C35.6027 71.7217 35.947 71.074 36.0909 70.8529C36.2164 70.9643 36.4968 71.2172 37.123 71.7882C40.1795 74.6158 45.291 78.5309 48.7614 80.7005C55.1444 84.6922 59.8095 86.8009 63.4434 87.3379C64.3777 87.475 64.6744 87.4541 66.0884 87.149C67.4939 86.8315 67.7167 86.7608 68.0347 86.3789C68.5315 85.7823 68.5768 85.177 68.1791 84.4133C67.6006 83.3328 66.2799 82.2422 60.7429 78.2746C59.1813 77.1536 57.6545 76.0207 57.1892 75.6386C56.2394 74.8747 52.613 71.4749 51.5645 70.367C51.1263 69.9022 50.6251 69.3389 50.2174 68.8638C50.2395 68.8839 50.2619 68.9053 50.285 68.9266C51.7096 70.2373 56.1343 73.9018 57.6837 75.0535C58.3345 75.5348 60.1023 76.7008 61.6952 77.6701C70.8797 83.3019 77.0188 85.8519 79.9437 85.247L80.0083 85.2324C81.0804 84.9903 81.6063 84.5275 81.7616 83.6938C81.9801 82.5833 81.0513 81.335 78.8433 79.7678C78.4064 79.4499 77.4901 78.7965 76.4825 78.0762L74.8759 76.9294C73.3345 75.8134 71.4494 74.4818 70.6558 73.9385C67.4168 71.722 62.854 67.8315 59.56 64.4794C59.1005 64.0051 58.4123 63.2534 57.8169 62.5845C58.3152 63.0324 59.0938 63.7454 59.7447 64.3413L59.9802 64.5568C65.2159 69.4284 70.4546 72.992 76.468 75.7758C81.0737 77.9116 85.0584 78.621 85.9436 77.465C86.4916 76.7408 86.2694 75.3207 85.4488 74.299C84.8112 73.4986 83.0033 72.0316 80.0766 69.9379C75.5365 66.7146 73.7351 65.2984 68.7433 61.0299C67.1765 59.6855 64.0677 56.6106 62.5685 55.012C62.6756 55.1045 62.7905 55.2048 62.9137 55.3147C65.0046 57.1466 66.533 58.2982 69.2073 60.0539L69.2073 60.0539ZM52.8946 56.7587C52.6078 56.9402 52.7035 57.2218 52.8977 57.7024C53.6072 59.4766 56.4448 62.9378 60.1249 66.5195C64.3166 70.5847 66.7292 72.5116 74.473 77.9729C79.2381 81.3475 79.4446 81.5031 80.0311 82.1347C80.4867 82.6268 80.6927 83.0668 80.6282 83.407C80.5778 83.6701 80.3651 83.8763 79.9966 84.0185C79.9223 84.0461 79.8424 84.0696 79.7581 84.0887C77.174 84.6723 69.5276 81.3114 60.8729 75.7567C59.3124 74.7515 57.4977 73.4889 56.9121 72.9997C52.8828 69.6258 50.2837 67.3558 48.4844 65.6377C47.4058 64.62 46.9021 64.2833 46.5613 64.3507L46.5508 64.3531C46.413 64.3842 46.3102 64.4835 46.2414 64.6544C46.0796 65.1129 46.3176 65.5891 47.518 67.2082C48.9375 69.1259 50.8038 71.1992 52.9156 73.2041C55.7171 75.875 58.0144 77.7498 61.6956 80.3738C65.5514 83.1369 67.1319 84.3296 67.2394 84.9927C67.2669 85.1608 67.2064 85.3183 67.0345 85.539C66.4047 86.3075 64.4538 86.4632 62.0671 85.9302C58.5675 85.1276 50.4369 80.8203 45.3361 77.0683C41.6965 74.3866 36.8131 70.2788 36.5147 69.7396C36.5518 69.5901 36.7529 68.9727 37.0829 68.046C38.725 63.3673 39.5291 60.56 40.2695 56.9196C41.595 50.3135 41.8782 45.9189 41.2469 41.7537C41.0473 40.4574 40.9389 40.0802 40.4755 39.0627C39.4893 36.8544 38.1071 35.5368 36.2478 35.0346C35.285 34.7785 33.6831 34.9876 32.6033 35.5144C31.9063 35.8429 30.5404 36.8862 30.1663 37.3744C30.055 37.5169 30.0508 37.5308 29.3157 37.1194C27.4634 36.058 25.8855 35.9041 24.0464 36.6052C22.3148 37.2785 21.0241 38.4853 20.4091 40.005C19.9325 41.1955 19.5654 43.0445 19.5742 44.213C19.5821 46.1632 20.7141 50.1971 22.0437 53.0233C23.8646 56.8567 28.4961 63.0914 33.0555 67.8471L35.0874 69.9772L34.9044 70.4365C33.5663 73.7873 30.1789 79.5351 28.3136 81.6188C27.2052 82.8544 25.3985 84.1262 24.4477 84.341C23.6194 84.5281 22.8399 83.9713 22.5955 83.0184C22.5357 82.7849 22.3983 81.2616 22.3041 79.5716C22.1907 77.8346 21.9651 75.2183 21.8012 73.739C20.9596 66.41 20.1174 63.5979 14.2879 48.6645C13.6665 47.0917 11.9044 40.185 11.7041 38.5381C11.2522 34.9527 11.3873 32.928 12.2563 30.2057C13.3196 26.9163 15.1098 25.0167 18.8604 23.1958C19.64 22.8135 20.7301 22.3094 21.2167 22.1276C22.4042 21.6959 26.7603 20.7032 28.7363 20.4163C33.9219 19.6698 38.3628 20.5007 42.3125 22.9597C45.528 24.9453 47.809 26.7974 50.4495 29.567C52.3616 31.5519 56.2876 36.3692 59.0221 40.0837C62.2975 44.5215 65.069 48.0451 66.6244 49.749C69.4161 52.8108 73.7521 56.8501 77.4129 59.8025C78.233 60.4566 79.2985 61.3823 79.7763 61.8335C80.487 62.5258 80.5797 62.6589 80.6008 63.0151C80.6235 63.3146 80.5532 63.5177 80.3867 63.6402C79.899 63.9878 78.6073 63.7211 76.5424 62.8333C71.8869 60.818 67.6306 57.9526 62.3108 53.2527C58.7333 50.0896 58.5783 49.9698 58.1666 50.0628C57.9955 50.1015 57.8286 50.1615 57.7771 50.334C57.6699 50.69 58.1079 51.2784 60.0294 53.6431C64.2861 58.8688 70.2522 64.1874 78.8075 70.3787C82.5574 73.0925 83.8464 74.1379 84.5561 75.0422C85.228 75.8749 85.2795 76.2181 85.1374 76.5956C85.015 76.9435 84.2873 77.3528 80.8065 76.2093C74.8016 74.2634 69.2112 70.9409 62.6797 65.431C60.6088 63.6998 56.2928 59.5941 54.9303 58.1166C53.6577 56.739 53.3169 56.4483 52.8955 56.7599L52.8946 56.7587ZM29.7509 41.5562C29.8027 40.6156 30.0765 39.6752 30.2279 39.4605C30.3211 39.588 30.5208 39.9073 30.7139 40.2796L30.7155 40.2833C31.0741 40.9351 31.152 41.178 31.1789 41.7372C31.2221 42.5456 31.1069 43.1525 30.8064 43.7095C30.6802 43.9538 30.5789 44.0818 30.4971 44.1003C30.4946 44.1009 30.4928 44.1013 30.4902 44.1012C30.4295 44.1108 30.3386 44.0587 30.2122 43.9414C29.8461 43.6055 29.6739 42.7155 29.7509 41.5562L29.7509 41.5562ZM20.7549 44.979C20.6485 42.5332 21.4457 39.9418 22.6493 38.8192C23.3645 38.1576 24.2686 37.6976 25.1831 37.491C25.8508 37.3402 26.5247 37.3251 27.1349 37.4654C27.5657 37.5662 28.2575 37.8497 28.6754 38.0979L29.3529 38.506L29.0535 39.3389C28.236 41.688 28.5329 44.1584 29.7298 44.9643C30.1603 45.2572 30.5566 45.3427 30.9298 45.2265C31.3967 45.0743 31.7677 44.5969 32.0306 43.8041C32.5321 42.2687 32.3766 40.9238 31.5248 39.4451C31.2702 38.9883 30.999 38.5447 30.9181 38.4375C30.846 38.3086 31.3733 37.5951 32.5124 36.9063C33.5763 36.2691 35.1266 35.9929 36.1163 36.2626C39.9306 37.3029 41.2761 43.0402 39.903 52.4158C39.6146 54.4037 38.6863 58.9767 38.2487 60.573C37.8478 62.0232 36.3929 66.5483 35.8541 68.0217L35.574 68.7933L35.3233 68.5568C32.7362 66.1075 28.6232 61.2138 25.9611 57.4158C23.6319 54.0806 22.3473 51.4906 21.3808 48.1766C20.8909 46.5252 20.8025 46.0763 20.7549 44.9791L20.7549 44.979ZM34.9244 17.9391C35.02 18.4488 35.0687 18.8367 35.0766 18.9767C34.953 18.9999 34.6215 19.0096 34.1395 18.9658C32.1287 18.789 28.7092 19.0423 25.8257 19.583C21.163 20.4618 16.6968 22.4014 14.4487 24.5417C12.8768 26.0515 12.0529 27.3123 11.302 29.3599C10.5729 31.3531 10.2937 32.8159 10.3062 34.5785L10.3054 35.1615L9.81484 34.7492C8.94869 34.0323 8.06852 32.8443 7.57291 31.7241C7.07641 30.5952 6.6025 28.2597 6.63349 27.0959C6.70902 24.3032 7.97017 21.0586 9.92553 18.6304C10.9139 17.4071 13.3879 15.2085 14.7397 14.3536C16.4191 13.2991 18.7637 12.4107 21.0161 11.9019C22.4223 11.5843 23.7934 11.4144 24.9441 11.4456L24.9447 11.4454C28.6132 11.526 31.9434 12.7985 33.4301 14.686C34.2008 15.6552 34.7185 16.7805 34.9245 17.9391L34.9244 17.9391Z" fill="var(--svg_color_2)"/>
  </symbol>

  <symbol id="svg_branch_2" viewBox="0 0 376 154">
    <path d="M302.659 13.7414C302.659 13.7414 330.633 14.1737 346.735 31.6576C362.836 49.1416 360.968 77.0563 360.968 77.0563C360.968 77.0563 332.994 76.624 316.893 59.1401C300.791 41.6561 302.659 13.7414 302.659 13.7414Z" fill="var(--svg_color_3)"/>
    <path d="M302.659 140.259C302.659 140.259 330.633 139.827 346.735 122.343C362.836 104.859 360.968 76.944 360.968 76.944C360.968 76.944 332.994 77.3763 316.893 94.8603C300.791 112.344 302.659 140.259 302.659 140.259Z" fill="var(--svg_color_3)"/>
    <path d="M236.962 13.7413C236.962 13.7413 264.936 14.1736 281.037 31.6576C297.139 49.1415 295.271 77.0563 295.271 77.0563C295.271 77.0563 267.297 76.6239 251.195 59.14C235.094 41.6561 236.962 13.7413 236.962 13.7413Z" fill="var(--svg_color_3)"/>
    <path d="M236.962 140.259C236.962 140.259 264.936 139.827 281.037 122.343C297.139 104.859 295.271 76.944 295.271 76.944C295.271 76.944 267.297 77.3763 251.195 94.8603C235.094 112.344 236.962 140.259 236.962 140.259Z" fill="var(--svg_color_3)"/>
    <path d="M164.612 13.7414C164.612 13.7414 192.586 14.1737 208.687 31.6576C224.789 49.1416 222.92 77.0563 222.92 77.0563C222.92 77.0563 194.946 76.624 178.845 59.1401C162.743 41.6561 164.612 13.7414 164.612 13.7414Z" fill="var(--svg_color_3)"/>
    <path d="M164.612 140.259C164.612 140.259 192.586 139.827 208.687 122.343C224.789 104.859 222.92 76.944 222.92 76.944C222.92 76.944 194.946 77.3763 178.845 94.8603C162.744 112.344 164.612 140.259 164.612 140.259Z" fill="var(--svg_color_3)"/>
    <path d="M88.9347 13.7413C88.9347 13.7413 116.909 14.1736 133.01 31.6576C149.112 49.1415 147.243 77.0563 147.243 77.0563C147.243 77.0563 119.269 76.6239 103.168 59.14C87.0665 41.6561 88.9347 13.7413 88.9347 13.7413Z" fill="var(--svg_color_3)"/>
    <path d="M88.9348 140.259C88.9348 140.259 116.909 139.827 133.01 122.343C149.112 104.859 147.243 76.944 147.243 76.944C147.243 76.944 119.269 77.3763 103.168 94.8603C87.0665 112.344 88.9348 140.259 88.9348 140.259Z" fill="var(--svg_color_3)"/>
    <path d="M14.921 13.7413C14.921 13.7413 42.8949 14.1736 58.9964 31.6576C75.0979 49.1415 73.2297 77.0563 73.2297 77.0563C73.2297 77.0563 45.2558 76.624 29.1543 59.14C13.0528 41.6561 14.921 13.7413 14.921 13.7413Z" fill="var(--svg_color_3)"/>
    <path d="M14.9211 140.259C14.9211 140.259 42.8949 139.827 58.9964 122.343C75.0979 104.859 73.2296 76.944 73.2296 76.944C73.2296 76.944 45.2558 77.3763 29.1543 94.8603C13.0528 112.344 14.9211 140.259 14.9211 140.259Z" fill="var(--svg_color_3)"/>
  </symbol>

  <symbol id="svg_branch_3" viewBox="0 0 154 376">
    <path d="M140.259 302.659C140.259 302.659 139.826 330.633 122.342 346.735C104.859 362.836 76.9438 360.968 76.9438 360.968C76.9438 360.968 77.3762 332.994 94.8601 316.893C112.344 300.791 140.259 302.659 140.259 302.659Z" fill="var(--svg_color_3)"/>
    <path d="M13.7413 302.659C13.7413 302.659 14.1736 330.633 31.6575 346.735C49.1414 362.836 77.0562 360.968 77.0562 360.968C77.0562 360.968 76.6238 332.994 59.1399 316.893C41.656 300.791 13.7413 302.659 13.7413 302.659Z" fill="var(--svg_color_3)"/>
    <path d="M140.259 236.962C140.259 236.962 139.826 264.935 122.342 281.037C104.859 297.138 76.9438 295.27 76.9438 295.27C76.9438 295.27 77.3762 267.296 94.8601 251.195C112.344 235.093 140.259 236.962 140.259 236.962Z" fill="var(--svg_color_3)"/>
    <path d="M13.7413 236.962C13.7413 236.962 14.1736 264.935 31.6575 281.037C49.1414 297.138 77.0562 295.27 77.0562 295.27C77.0562 295.27 76.6238 267.296 59.1399 251.195C41.656 235.093 13.7413 236.962 13.7413 236.962Z" fill="var(--svg_color_3)"/>
    <path d="M140.259 164.611C140.259 164.611 139.826 192.585 122.342 208.687C104.859 224.788 76.9438 222.92 76.9438 222.92C76.9438 222.92 77.3762 194.946 94.8601 178.845C112.344 162.743 140.259 164.611 140.259 164.611Z" fill="var(--svg_color_3)"/>
    <path d="M13.7413 164.611C13.7413 164.611 14.1736 192.585 31.6575 208.687C49.1414 224.788 77.0562 222.92 77.0562 222.92C77.0562 222.92 76.6238 194.946 59.1399 178.845C41.656 162.743 13.7413 164.611 13.7413 164.611Z" fill="var(--svg_color_3)"/>
    <path d="M140.259 88.9346C140.259 88.9346 139.826 116.909 122.342 133.01C104.859 149.112 76.9438 147.243 76.9438 147.243C76.9438 147.243 77.3762 119.269 94.8601 103.168C112.344 87.0664 140.259 88.9346 140.259 88.9346Z" fill="var(--svg_color_3)"/>
    <path d="M13.7413 88.9346C13.7413 88.9346 14.1736 116.909 31.6575 133.01C49.1414 149.112 77.0562 147.243 77.0562 147.243C77.0562 147.243 76.6238 119.269 59.1399 103.168C41.656 87.0664 13.7413 88.9346 13.7413 88.9346Z" fill="var(--svg_color_3)"/>
    <path d="M140.259 14.921C140.259 14.921 139.826 42.8949 122.342 58.9964C104.859 75.0979 76.9438 73.2297 76.9438 73.2297C76.9438 73.2297 77.3762 45.2557 94.8601 29.1542C112.344 13.0527 140.259 14.921 140.259 14.921Z" fill="var(--svg_color_3)"/>
    <path d="M13.7413 14.921C13.7413 14.921 14.1736 42.8949 31.6575 58.9964C49.1414 75.0979 77.0562 73.2297 77.0562 73.2297C77.0562 73.2297 76.6238 45.2557 59.1399 29.1542C41.656 13.0527 13.7413 14.921 13.7413 14.921Z" fill="var(--svg_color_3)"/>
  </symbol>

  <symbol id="svg_faq" viewBox="0 0 37 26">
    <path d="M18.5667 25.5666L0.566774 7.56665C10.5079 -2.37444 26.6256 -2.37444 36.5667 7.56665L18.5667 25.5666Z" fill="var(--svg_color_1)"/>
  </symbol>

  <symbol id="svg_arrow" viewBox="0 0 14 9">
    <path d="M7 7.5L6.29289 8.20711L7 8.91421L7.70711 8.20711L7 7.5ZM12.2929 0.792894L6.29289 6.79289L7.70711 8.20711L13.7071 2.20711L12.2929 0.792894ZM7.70711 6.79289L1.70711 0.792893L0.292893 2.20711L6.29289 8.20711L7.70711 6.79289Z" fill="var(--svg_color_1)"/>
  </symbol>

  <symbol id="svg_bird" viewBox="0 0 71 77">
    <path d="M39.0899 24.2274C39.0899 24.2274 32.2906 32.2959 35.0104 33.6558C37.7301 35.0156 43.0789 29.5762 45.7986 25.5873C48.5183 21.5983 47.1585 20.1478 43.0789 21.5077C38.9993 22.8675 37.6394 26.9471 36.3702 26.9471C35.101 26.9471 29.6616 19.3334 26.3979 20.9637C24.2475 22.0379 24.4035 23.9554 27.3951 27.0378C27.7039 27.3559 24.1315 24.2274 22.409 23.0489C18.0633 20.9637 14.3405 23.0489 16.3349 26.0405C18.3294 29.0322 22.409 29.8388 21.9557 30.3014C21.5024 30.7641 17.4228 26.6752 12.89 25.7686C8.90104 24.9527 6.34005 27.9835 12.4141 32.0631C17.8535 35.6894 16.063 35.0156 14.7031 33.6558C13.3433 32.2959 2.46436 25.7686 1.1045 31.208C-0.255357 36.6475 11.9834 40.5457 18.7827 43.2655C25.582 45.9852 24.2221 49.9741 21.5024 51.334C18.7827 52.6938 17.4228 51.334 14.7031 54.0537C11.9834 56.7734 13.3432 59.4931 22.7716 58.1333C32.2 56.7734 29.5709 55.4135 37.6394 52.6938C45.7079 49.9741 51.238 51.1526 51.238 51.1526C52.3259 49.9741 53.2325 48.6142 53.9578 47.0731C55.3176 44.3533 58.0373 44.3533 59.3972 44.3533C60.7571 44.3533 59.3972 47.0731 58.0373 51.062C56.6775 55.0509 56.6775 56.5014 55.3176 57.7706C53.9578 59.0398 47.2491 61.8502 41.8097 60.4903C36.3702 59.1305 33.6505 56.4108 29.6616 56.4108" stroke="var(--svg_color_2)" stroke-miterlimit="10" fill="none" stroke-linecap="round"/>
    <path d="M47.1584 23.1396C47.1584 23.1396 52.5979 20.0573 52.5979 24.1369C52.5979 28.2164 44.2647 35.8857 41.8097 36.2849C38.5085 36.8218 39.2471 34.3648 40.5534 31.7521M53.5917 34.1514C49.312 39.6711 40.1778 40.3645 51.0567 28.2164C59.2159 19.1507 58.4416 28.2164 54.683 32.7493C50.6034 36.8289 61.7345 34.033 65.9383 32.7493C69.2042 31.7521 71.5739 31.1195 67.647 20.7825C61.4823 4.55486 29.5709 -10.7662 6.54395 14.0739" stroke="var(--svg_color_2)" stroke-miterlimit="10" fill="none" stroke-linecap="round"/>
    <path d="M15.7003 53.0565H7.17849C5.81863 53.0565 4.54943 53.6005 3.64285 54.6883C2.73628 55.8669 2.82694 57.2268 4.54943 60.1278C7.90375 65.7485 19.0546 75.6302 35.6449 75.9928C54.683 76.3555 64.3833 62.7569 67.0124 58.224" stroke="var(--svg_color_2)" stroke-miterlimit="10" fill="none" stroke-linecap="round"/>
  </symbol>

  <symbol id="svg_branch_4" viewBox="0 0 201 102">
    <path d="M152.241 9.1012C152.241 9.1012 170.867 9.38754 181.588 20.9678C192.309 32.548 191.065 51.037 191.065 51.037C191.065 51.037 172.439 50.7507 161.718 39.1704C150.997 27.5902 152.241 9.1012 152.241 9.1012Z" fill="var(--svg_color_1)"/>
    <path d="M152.241 92.8985C152.241 92.8985 170.867 92.6122 181.588 81.032C192.309 69.4517 191.065 50.9628 191.065 50.9628C191.065 50.9628 172.439 51.2491 161.718 62.8293C150.997 74.4096 152.241 92.8985 152.241 92.8985Z" fill="var(--svg_color_1)"/>
    <path d="M108.497 9.10144C108.497 9.10144 127.123 9.38778 137.844 20.968C148.565 32.5483 147.321 51.0372 147.321 51.0372C147.321 51.0372 128.695 50.7509 117.974 39.1707C107.253 27.5904 108.497 9.10144 108.497 9.10144Z" fill="var(--svg_color_1)"/>
    <path d="M108.497 92.8987C108.497 92.8987 127.123 92.6123 137.844 81.0321C148.565 69.4518 147.321 50.9629 147.321 50.9629C147.321 50.9629 128.695 51.2492 117.974 62.8295C107.253 74.4097 108.497 92.8987 108.497 92.8987Z" fill="var(--svg_color_1)"/>
    <path d="M60.3234 9.1012C60.3234 9.1012 78.9494 9.38754 89.6704 20.9678C100.391 32.548 99.1474 51.037 99.1474 51.037C99.1474 51.037 80.5213 50.7507 69.8004 39.1704C59.0794 27.5902 60.3234 9.1012 60.3234 9.1012Z" fill="var(--svg_color_1)"/>
    <path d="M60.3234 92.8985C60.3234 92.8985 78.9494 92.6122 89.6704 81.032C100.391 69.4517 99.1474 50.9628 99.1474 50.9628C99.1474 50.9628 80.5214 51.2491 69.8004 62.8293C59.0794 74.4096 60.3234 92.8985 60.3234 92.8985Z" fill="var(--svg_color_1)"/>
    <path d="M9.93518 9.10144C9.93518 9.10144 28.5612 9.38778 39.2822 20.968C50.0031 32.5483 48.7592 51.0372 48.7592 51.0372C48.7592 51.0372 30.1332 50.7509 19.4122 39.1707C8.69125 27.5904 9.93518 9.10144 9.93518 9.10144Z" fill="var(--svg_color_1)"/>
    <path d="M9.93519 92.8987C9.93519 92.8987 28.5612 92.6123 39.2822 81.0321C50.0031 69.4518 48.7592 50.9629 48.7592 50.9629C48.7592 50.9629 30.1332 51.2492 19.4122 62.8295C8.69126 74.4097 9.93519 92.8987 9.93519 92.8987Z" fill="var(--svg_color_1)"/>
  </symbol>

</svg>